<?xml version="1.0" encoding="UTF-8" standalone="no"?>
<!-- Created with Inkscape (http://www.inkscape.org/) -->

<svg
   width="400mm"
   height="250mm"
   viewBox="0 0 400 250"
   version="1.1"
   id="svg1"
   sodipodi:docname="AroundTheWallTutorial.svg"
   inkscape:version="1.3 (0e150ed6c4, 2023-07-21)"
   xml:space="preserve"
   xmlns:inkscape="http://www.inkscape.org/namespaces/inkscape"
   xmlns:sodipodi="http://sodipodi.sourceforge.net/DTD/sodipodi-0.dtd"
   xmlns="http://www.w3.org/2000/svg"
   xmlns:svg="http://www.w3.org/2000/svg"><sodipodi:namedview
     id="namedview1"
     pagecolor="#232323"
     bordercolor="#000000"
     borderopacity="0.25"
     inkscape:showpageshadow="2"
     inkscape:pageopacity="0.0"
     inkscape:pagecheckerboard="true"
     inkscape:deskcolor="#d1d1d1"
     inkscape:document-units="mm"
     inkscape:zoom="0.40933864"
     inkscape:cx="629.06351"
     inkscape:cy="456.83447"
     inkscape:window-width="1280"
     inkscape:window-height="730"
     inkscape:window-x="-6"
     inkscape:window-y="-6"
     inkscape:window-maximized="1"
     inkscape:current-layer="layer1" /><defs
     id="defs1"><clipPath
       clipPathUnits="userSpaceOnUse"
       id="clipPath84"><path
         id="path84"
         style="fill:#ff0000;fill-opacity:1;fill-rule:nonzero;stroke:none;stroke-width:0.264583"
         d="m 35.192768,57.883115 -5.783671,5.783671 11.190606,11.190606 4.968813,4.968813 5.783671,-5.783671 z" /></clipPath><clipPath
       clipPathUnits="userSpaceOnUse"
       id="clipPath84-7"><path
         id="path84-3"
         style="fill:#ff0000;fill-opacity:1;fill-rule:nonzero;stroke:none;stroke-width:0.264583"
         d="m 35.192768,57.883115 -5.783671,5.783671 11.190606,11.190606 4.968813,4.968813 5.783671,-5.783671 z" /></clipPath></defs><g
     inkscape:label="Layer 1"
     inkscape:groupmode="layer"
     id="layer1"><path
       d="m 145.98258,129.49284 a 19.875959,18.549351 0 0 0 -2.59416,0.15873 19.875959,18.549351 0 0 0 -2.55023,0.4734 19.875959,18.549351 0 0 0 -2.46186,0.78009 19.875959,18.549351 0 0 0 -2.33164,1.07289 19.875959,18.549351 0 0 0 -2.16163,1.34797 19.875959,18.549351 0 0 0 -1.95492,1.60013 19.875959,18.549351 0 0 0 -1.71411,1.82415 19.875959,18.549351 0 0 0 -1.44435,2.01727 19.875959,18.549351 0 0 0 -1.1498,2.17634 19.875959,18.549351 0 0 0 -0.83561,2.29755 19.875959,18.549351 0 0 0 -0.50746,2.37988 19.875959,18.549351 0 0 0 -0.17002,2.4212 19.875959,18.549351 0 0 0 0.17002,2.42085 19.875959,18.549351 0 0 0 0.50746,2.37987 19.875959,18.549351 0 0 0 0.83561,2.29756 19.875959,18.549351 0 0 0 1.1498,2.17634 19.875959,18.549351 0 0 0 1.44435,2.01727 19.875959,18.549351 0 0 0 1.71411,1.8245 19.875959,18.549351 0 0 0 1.95492,1.59978 19.875959,18.549351 0 0 0 2.16163,1.34796 19.875959,18.549351 0 0 0 2.33164,1.07324 19.875959,18.549351 0 0 0 2.46186,0.77975 19.875959,18.549351 0 0 0 2.55023,0.4734 19.875959,18.549351 0 0 0 2.59416,0.15873 19.875959,18.549351 0 0 0 2.59467,-0.15873 19.875959,18.549351 0 0 0 2.54972,-0.4734 19.875959,18.549351 0 0 0 2.46186,-0.77975 19.875959,18.549351 0 0 0 2.33165,-1.07324 19.875959,18.549351 0 0 0 2.16214,-1.34796 19.875959,18.549351 0 0 0 1.9544,-1.59978 19.875959,18.549351 0 0 0 1.71411,-1.8245 19.875959,18.549351 0 0 0 1.44487,-2.01727 19.875959,18.549351 0 0 0 1.1498,-2.17634 19.875959,18.549351 0 0 0 0.83561,-2.29756 19.875959,18.549351 0 0 0 0.50746,-2.37987 19.875959,18.549351 0 0 0 0.17002,-2.42085 19.875959,18.549351 0 0 0 0,-3.4e-4 19.875959,18.549351 0 0 0 0,-3.6e-4 19.875959,18.549351 0 0 0 0,-6.7e-4 19.875959,18.549351 0 0 0 0,-3.5e-4 19.875959,18.549351 0 0 0 0,-3.4e-4 19.875959,18.549351 0 0 0 0,-3.5e-4 19.875959,18.549351 0 0 0 0,-6.7e-4 19.875959,18.549351 0 0 0 0,-3.4e-4 19.875959,18.549351 0 0 0 0,-3.5e-4 19.875959,18.549351 0 0 0 0,-3.6e-4 19.875959,18.549351 0 0 0 0,-3.4e-4 19.875959,18.549351 0 0 0 0,-6.7e-4 19.875959,18.549351 0 0 0 0,-3.4e-4 19.875959,18.549351 0 0 0 0,-3.6e-4 19.875959,18.549351 0 0 0 0,-3.4e-4 19.875959,18.549351 0 0 0 0,-6.7e-4 19.875959,18.549351 0 0 0 0,-3.5e-4 19.875959,18.549351 0 0 0 0,-3.4e-4 19.875959,18.549351 0 0 0 0,-3.6e-4 19.875959,18.549351 0 0 0 0,-3.5e-4 19.875959,18.549351 0 0 0 0,-6.6e-4 19.875959,18.549351 0 0 0 0,-3.5e-4 19.875959,18.549351 0 0 0 0,-3.5e-4 19.875959,18.549351 0 0 0 0,-3.5e-4 19.875959,18.549351 0 0 0 0,-6.7e-4 19.875959,18.549351 0 0 0 0,-3.5e-4 19.875959,18.549351 0 0 0 0,-3.5e-4 19.875959,18.549351 0 0 0 0,-3.4e-4 19.875959,18.549351 0 0 0 0,-3.5e-4 19.875959,18.549351 0 0 0 0,-6.7e-4 19.875959,18.549351 0 0 0 0,-3.6e-4 19.875959,18.549351 0 0 0 0,-3.4e-4 19.875959,18.549351 0 0 0 0,-3.5e-4 19.875959,18.549351 0 0 0 0,-6.7e-4 19.875959,18.549351 0 0 0 0,-3.6e-4 19.875959,18.549351 0 0 0 0,-3.4e-4 19.875959,18.549351 0 0 0 0,-3.5e-4 19.875959,18.549351 0 0 0 0,-3.4e-4 19.875959,18.549351 0 0 0 0,-6.8e-4 19.875959,18.549351 0 0 0 0,-3.5e-4 19.875959,18.549351 0 0 0 0,-3.4e-4 19.875959,18.549351 0 0 0 0,-3.5e-4 19.875959,18.549351 0 0 0 0,-6.8e-4 19.875959,18.549351 0 0 0 0,-3.4e-4 19.875959,18.549351 0 0 0 0,-3.5e-4 19.875959,18.549351 0 0 0 0,-3.4e-4 19.875959,18.549351 0 0 0 0,-3.5e-4 19.875959,18.549351 0 0 0 0,-6.8e-4 19.875959,18.549351 0 0 0 0,-3.4e-4 19.875959,18.549351 0 0 0 0,-3.5e-4 19.875959,18.549351 0 0 0 0,-3.4e-4 19.875959,18.549351 0 0 0 0,-3.6e-4 19.875959,18.549351 0 0 0 0,-6.7e-4 19.875959,18.549351 0 0 0 0,-3.5e-4 19.875959,18.549351 0 0 0 0,-3.4e-4 19.875959,18.549351 0 0 0 0,-3.5e-4 19.875959,18.549351 0 0 0 0,-6.7e-4 19.875959,18.549351 0 0 0 0,-3.4e-4 19.875959,18.549351 0 0 0 0,-3.5e-4 19.875959,18.549351 0 0 0 0,-3.6e-4 19.875959,18.549351 0 0 0 0,-3.5e-4 19.875959,18.549351 0 0 0 0,-6.6e-4 19.875959,18.549351 0 0 0 0,-3.5e-4 19.875959,18.549351 0 0 0 0,-3.5e-4 19.875959,18.549351 0 0 0 0,-3.5e-4 19.875959,18.549351 0 0 0 0,-6.7e-4 19.875959,18.549351 0 0 0 0,-3.5e-4 19.875959,18.549351 0 0 0 0,-3.5e-4 19.875959,18.549351 0 0 0 0,-3.4e-4 19.875959,18.549351 0 0 0 0,-3.5e-4 19.875959,18.549351 0 0 0 0,-6.7e-4 19.875959,18.549351 0 0 0 0,-3.6e-4 19.875959,18.549351 0 0 0 0,-3.4e-4 19.875959,18.549351 0 0 0 0,-3.5e-4 19.875959,18.549351 0 0 0 0,-6.6e-4 19.875959,18.549351 0 0 0 0,-3.5e-4 19.875959,18.549351 0 0 0 0,-3.5e-4 19.875959,18.549351 0 0 0 0,-3.5e-4 19.875959,18.549351 0 0 0 0,-3.4e-4 19.875959,18.549351 0 0 0 0,-6.7e-4 19.875959,18.549351 0 0 0 0,-3.5e-4 19.875959,18.549351 0 0 0 0,-3.5e-4 19.875959,18.549351 0 0 0 0,-3.4e-4 19.875959,18.549351 0 0 0 0,-6.7e-4 19.875959,18.549351 0 0 0 0,-3.6e-4 19.875959,18.549351 0 0 0 0,-3.4e-4 19.875959,18.549351 0 0 0 0,-3.5e-4 19.875959,18.549351 0 0 0 0,-3.5e-4 19.875959,18.549351 0 0 0 0,-6.7e-4 19.875959,18.549351 0 0 0 0,-3.5e-4 19.875959,18.549351 0 0 0 0,-3.5e-4 19.875959,18.549351 0 0 0 0,-3.4e-4 19.875959,18.549351 0 0 0 0,-6.8e-4 19.875959,18.549351 0 0 0 0,-3.4e-4 19.875959,18.549351 0 0 0 0,-3.5e-4 19.875959,18.549351 0 0 0 0,-3.4e-4 19.875959,18.549351 0 0 0 0,-3.5e-4 19.875959,18.549351 0 0 0 0,-6.7e-4 19.875959,18.549351 0 0 0 0,-3.4e-4 19.875959,18.549351 0 0 0 0,-3.5e-4 19.875959,18.549351 0 0 0 0,-3.5e-4 19.875959,18.549351 0 0 0 0,-6.8e-4 19.875959,18.549351 0 0 0 0,-3.5e-4 19.875959,18.549351 0 0 0 0,-3.4e-4 19.875959,18.549351 0 0 0 0,-3.4e-4 19.875959,18.549351 0 0 0 0,-3.6e-4 19.875959,18.549351 0 0 0 0,-6.7e-4 19.875959,18.549351 0 0 0 0,-3.5e-4 19.875959,18.549351 0 0 0 0,-3.4e-4 19.875959,18.549351 0 0 0 0,-3.6e-4 19.875959,18.549351 0 0 0 0,-6.6e-4 19.875959,18.549351 0 0 0 0,-3.5e-4 19.875959,18.549351 0 0 0 0,-3.5e-4 19.875959,18.549351 0 0 0 0,-3.4e-4 19.875959,18.549351 0 0 0 0,-3.6e-4 19.875959,18.549351 0 0 0 0,-6.7e-4 19.875959,18.549351 0 0 0 0,-3.4e-4 19.875959,18.549351 0 0 0 0,-3.4e-4 19.875959,18.549351 0 0 0 0,-3.6e-4 19.875959,18.549351 0 0 0 0,-6.7e-4 19.875959,18.549351 0 0 0 0,-3.5e-4 19.875959,18.549351 0 0 0 0,-3.4e-4 19.875959,18.549351 0 0 0 0,-3.6e-4 19.875959,18.549351 0 0 0 0,-3.4e-4 19.875959,18.549351 0 0 0 0,-6.7e-4 19.875959,18.549351 0 0 0 0,-3.5e-4 19.875959,18.549351 0 0 0 0,-3.5e-4 19.875959,18.549351 0 0 0 0,-3.5e-4 19.875959,18.549351 0 0 0 0,-6.7e-4 19.875959,18.549351 0 0 0 0,-3.4e-4 19.875959,18.549351 0 0 0 0,-3.6e-4 19.875959,18.549351 0 0 0 0,-3.4e-4 19.875959,18.549351 0 0 0 0,-3.5e-4 19.875959,18.549351 0 0 0 0,-6.7e-4 19.875959,18.549351 0 0 0 0,-3.5e-4 19.875959,18.549351 0 0 0 0,-3.5e-4 19.875959,18.549351 0 0 0 0,-3.4e-4 19.875959,18.549351 0 0 0 0,-3.5e-4 19.875959,18.549351 0 0 0 0,-6.8e-4 19.875959,18.549351 0 0 0 0,-3.5e-4 19.875959,18.549351 0 0 0 0,-3.4e-4 19.875959,18.549351 0 0 0 0,-3.4e-4 19.875959,18.549351 0 0 0 0,-3.5e-4 19.875959,18.549351 0 0 0 0,-6.8e-4 19.875959,18.549351 0 0 0 0,-3.4e-4 19.875959,18.549351 0 0 0 0,-3.5e-4 19.875959,18.549351 0 0 0 0,-3.5e-4 19.875959,18.549351 0 0 0 0,-3.5e-4 19.875959,18.549351 0 0 0 0,-6.6e-4 19.875959,18.549351 0 0 0 0,-3.5e-4 19.875959,18.549351 0 0 0 0,-3.4e-4 19.875959,18.549351 0 0 0 0,-3.6e-4 19.875959,18.549351 0 0 0 0,-3.4e-4 19.875959,18.549351 0 0 0 0,-6.7e-4 19.875959,18.549351 0 0 0 0,-3.4e-4 19.875959,18.549351 0 0 0 0,-3.5e-4 19.875959,18.549351 0 0 0 0,-3.6e-4 19.875959,18.549351 0 0 0 0,-3.4e-4 19.875959,18.549351 0 0 0 0,-6.6e-4 19.875959,18.549351 0 0 0 0,-3.5e-4 19.875959,18.549351 0 0 0 0,-3.5e-4 19.875959,18.549351 0 0 0 0,-3.5e-4 19.875959,18.549351 0 0 0 0,-3.4e-4 19.875959,18.549351 0 0 0 0,-6.7e-4 19.875959,18.549351 0 0 0 0,-3.5e-4 19.875959,18.549351 0 0 0 0,-3.5e-4 19.875959,18.549351 0 0 0 0,-3.5e-4 19.875959,18.549351 0 0 0 0,-3.4e-4 19.875959,18.549351 0 0 0 0,-6.7e-4 19.875959,18.549351 0 0 0 0,-3.5e-4 19.875959,18.549351 0 0 0 0,-3.4e-4 19.875959,18.549351 0 0 0 0,-3.5e-4 19.875959,18.549351 0 0 0 0,-3.5e-4 19.875959,18.549351 0 0 0 0,-6.8e-4 19.875959,18.549351 0 0 0 0,-3.4e-4 19.875959,18.549351 0 0 0 0,-3.4e-4 19.875959,18.549351 0 0 0 0,-3.5e-4 19.875959,18.549351 0 0 0 0,-3.6e-4 19.875959,18.549351 0 0 0 0,-6.7e-4 19.875959,18.549351 0 0 0 0,-3.5e-4 19.875959,18.549351 0 0 0 0,-3.4e-4 19.875959,18.549351 0 0 0 0,-3.5e-4 19.875959,18.549351 0 0 0 0,-6.7e-4 19.875959,18.549351 0 0 0 0,-3.5e-4 19.875959,18.549351 0 0 0 0,-3.5e-4 19.875959,18.549351 0 0 0 0,-3.5e-4 19.875959,18.549351 0 0 0 0,-3.4e-4 19.875959,18.549351 0 0 0 0,-6.7e-4 19.875959,18.549351 0 0 0 0,-3.5e-4 19.875959,18.549351 0 0 0 0,-3.6e-4 19.875959,18.549351 0 0 0 0,-3.4e-4 19.875959,18.549351 0 0 0 0,-6.7e-4 19.875959,18.549351 0 0 0 0,-3.4e-4 19.875959,18.549351 0 0 0 0,-3.6e-4 19.875959,18.549351 0 0 0 0,-3.4e-4 19.875959,18.549351 0 0 0 0,-3.4e-4 19.875959,18.549351 0 0 0 0,-6.7e-4 19.875959,18.549351 0 0 0 0,-3.4e-4 19.875959,18.549351 0 0 0 0,-3.6e-4 19.875959,18.549351 0 0 0 0,-3.5e-4 19.875959,18.549351 0 0 0 0,-3.5e-4 19.875959,18.549351 0 0 0 0,-6.6e-4 19.875959,18.549351 0 0 0 0,-3.6e-4 19.875959,18.549351 0 0 0 0,-3.4e-4 19.875959,18.549351 0 0 0 0,-3.5e-4 19.875959,18.549351 0 0 0 0,-6.7e-4 19.875959,18.549351 0 0 0 0,-3.6e-4 19.875959,18.549351 0 0 0 0,-3.4e-4 19.875959,18.549351 0 0 0 0,-3.4e-4 19.875959,18.549351 0 0 0 0,-3.5e-4 19.875959,18.549351 0 0 0 0,-6.8e-4 19.875959,18.549351 0 0 0 0,-3.5e-4 19.875959,18.549351 0 0 0 0,-3.4e-4 19.875959,18.549351 0 0 0 0,-3.5e-4 19.875959,18.549351 0 0 0 0,-6.7e-4 19.875959,18.549351 0 0 0 0,-3.4e-4 19.875959,18.549351 0 0 0 0,-3.5e-4 19.875959,18.549351 0 0 0 0,-3.5e-4 19.875959,18.549351 0 0 0 0,-3.4e-4 19.875959,18.549351 0 0 0 0,-6.8e-4 19.875959,18.549351 0 0 0 0,-3.4e-4 19.875959,18.549351 0 0 0 0,-3.5e-4 19.875959,18.549351 0 0 0 0,-3.4e-4 19.875959,18.549351 0 0 0 0,-6.8e-4 19.875959,18.549351 0 0 0 0,-3.5e-4 19.875959,18.549351 0 0 0 -5.2e-4,-0.0191 19.875959,18.549351 0 0 0 0,-3.6e-4 19.875959,18.549351 0 0 0 0,-3.4e-4 19.875959,18.549351 0 0 0 0,-3.5e-4 19.875959,18.549351 0 0 0 0,-6.7e-4 19.875959,18.549351 0 0 0 0,-3.5e-4 19.875959,18.549351 0 0 0 0,-3.5e-4 19.875959,18.549351 0 0 0 0,-3.4e-4 19.875959,18.549351 0 0 0 0,-6.7e-4 19.875959,18.549351 0 0 0 0,-3.5e-4 19.875959,18.549351 0 0 0 0,-3.5e-4 19.875959,18.549351 0 0 0 0,-3.5e-4 19.875959,18.549351 0 0 0 0,-3.4e-4 19.875959,18.549351 0 0 0 0,-6.8e-4 19.875959,18.549351 0 0 0 0,-3.4e-4 19.875959,18.549351 0 0 0 0,-3.4e-4 19.875959,18.549351 0 0 0 0,-3.5e-4 19.875959,18.549351 0 0 0 0,-6.7e-4 19.875959,18.549351 0 0 0 0,-3.6e-4 19.875959,18.549351 0 0 0 0,-3.5e-4 19.875959,18.549351 0 0 0 0,-3.4e-4 19.875959,18.549351 0 0 0 0,-3.4e-4 19.875959,18.549351 0 0 0 0,-6.8e-4 19.875959,18.549351 0 0 0 0,-3.5e-4 19.875959,18.549351 0 0 0 0,-3.5e-4 19.875959,18.549351 0 0 0 0,-3.4e-4 19.875959,18.549351 0 0 0 0,-6.8e-4 19.875959,18.549351 0 0 0 0,-3.4e-4 19.875959,18.549351 0 0 0 0,-3.4e-4 19.875959,18.549351 0 0 0 0,-3.5e-4 19.875959,18.549351 0 0 0 0,-3.4e-4 19.875959,18.549351 0 0 0 0,-6.8e-4 19.875959,18.549351 0 0 0 0,-3.4e-4 19.875959,18.549351 0 0 0 0,-3.5e-4 19.875959,18.549351 0 0 0 0,-3.5e-4 19.875959,18.549351 0 0 0 0,-6.8e-4 19.875959,18.549351 0 0 0 0,-3.4e-4 19.875959,18.549351 0 0 0 0,-3.4e-4 19.875959,18.549351 0 0 0 0,-3.5e-4 19.875959,18.549351 0 0 0 0,-3.6e-4 19.875959,18.549351 0 0 0 0,-6.7e-4 19.875959,18.549351 0 0 0 0,-3.4e-4 19.875959,18.549351 0 0 0 0,-3.5e-4 19.875959,18.549351 0 0 0 0,-3.5e-4 19.875959,18.549351 0 0 0 0,-6.7e-4 19.875959,18.549351 0 0 0 0,-3.4e-4 19.875959,18.549351 0 0 0 0,-3.5e-4 19.875959,18.549351 0 0 0 0,-3.6e-4 19.875959,18.549351 0 0 0 0,-3.4e-4 19.875959,18.549351 0 0 0 0,-6.7e-4 19.875959,18.549351 0 0 0 0,-3.4e-4 19.875959,18.549351 0 0 0 0,-3.4e-4 19.875959,18.549351 0 0 0 0,-3.6e-4 19.875959,18.549351 0 0 0 0,-3.4e-4 19.875959,18.549351 0 0 0 0,-6.7e-4 19.875959,18.549351 0 0 0 0,-3.4e-4 19.875959,18.549351 0 0 0 0,-3.6e-4 19.875959,18.549351 0 0 0 0,-3.5e-4 19.875959,18.549351 0 0 0 0,-6.7e-4 19.875959,18.549351 0 0 0 0,-3.4e-4 19.875959,18.549351 0 0 0 0,-3.5e-4 19.875959,18.549351 0 0 0 0,-3.5e-4 19.875959,18.549351 0 0 0 0,-3.5e-4 19.875959,18.549351 0 0 0 0,-6.7e-4 19.875959,18.549351 0 0 0 0,-3.5e-4 19.875959,18.549351 0 0 0 0,-3.5e-4 19.875959,18.549351 0 0 0 0,-3.4e-4 19.875959,18.549351 0 0 0 0,-6.7e-4 19.875959,18.549351 0 0 0 0,-3.6e-4 19.875959,18.549351 0 0 0 0,-3.5e-4 19.875959,18.549351 0 0 0 0,-3.4e-4 19.875959,18.549351 0 0 0 0,-3.4e-4 19.875959,18.549351 0 0 0 0,-6.8e-4 19.875959,18.549351 0 0 0 0,-3.4e-4 19.875959,18.549351 0 0 0 0,-3.5e-4 19.875959,18.549351 0 0 0 0,-3.5e-4 19.875959,18.549351 0 0 0 0,-6.8e-4 19.875959,18.549351 0 0 0 0,-3.4e-4 19.875959,18.549351 0 0 0 0,-3.5e-4 19.875959,18.549351 0 0 0 0,-3.4e-4 19.875959,18.549351 0 0 0 0,-3.5e-4 19.875959,18.549351 0 0 0 0,-6.8e-4 19.875959,18.549351 0 0 0 0,-3.5e-4 19.875959,18.549351 0 0 0 0,-3.4e-4 19.875959,18.549351 0 0 0 0,-3.4e-4 19.875959,18.549351 0 0 0 0,-6.8e-4 19.875959,18.549351 0 0 0 0,-3.5e-4 19.875959,18.549351 0 0 0 0,-3.5e-4 19.875959,18.549351 0 0 0 0,-3.4e-4 19.875959,18.549351 0 0 0 0,-3.6e-4 19.875959,18.549351 0 0 0 0,-6.6e-4 19.875959,18.549351 0 0 0 -5.2e-4,-0.0191 19.875959,18.549351 0 0 0 0,-3.5e-4 19.875959,18.549351 0 0 0 0,-3.5e-4 19.875959,18.549351 0 0 0 0,-3.4e-4 19.875959,18.549351 0 0 0 0,-3.4e-4 19.875959,18.549351 0 0 0 0,-6.7e-4 19.875959,18.549351 0 0 0 0,-3.5e-4 19.875959,18.549351 0 0 0 0,-3.5e-4 19.875959,18.549351 0 0 0 0,-3.5e-4 19.875959,18.549351 0 0 0 0,-3.4e-4 19.875959,18.549351 0 0 0 0,-6.8e-4 19.875959,18.549351 0 0 0 0,-3.4e-4 19.875959,18.549351 0 0 0 0,-3.5e-4 19.875959,18.549351 0 0 0 0,-3.4e-4 19.875959,18.549351 0 0 0 0,-3.4e-4 19.875959,18.549351 0 0 0 0,-6.8e-4 19.875959,18.549351 0 0 0 0,-3.4e-4 19.875959,18.549351 0 0 0 0,-3.5e-4 19.875959,18.549351 0 0 0 0,-3.5e-4 19.875959,18.549351 0 0 0 0,-3.5e-4 19.875959,18.549351 0 0 0 0,-6.7e-4 19.875959,18.549351 0 0 0 0,-3.5e-4 19.875959,18.549351 0 0 0 0,-3.4e-4 19.875959,18.549351 0 0 0 0,-3.6e-4 19.875959,18.549351 0 0 0 0,-3.5e-4 19.875959,18.549351 0 0 0 0,-6.6e-4 19.875959,18.549351 0 0 0 0,-3.5e-4 19.875959,18.549351 0 0 0 0,-3.5e-4 19.875959,18.549351 0 0 0 0,-3.5e-4 19.875959,18.549351 0 0 0 0,-3.5e-4 19.875959,18.549351 0 0 0 0,-6.7e-4 19.875959,18.549351 0 0 0 0,-3.5e-4 19.875959,18.549351 0 0 0 0,-3.4e-4 19.875959,18.549351 0 0 0 0,-3.5e-4 19.875959,18.549351 0 0 0 0,-3.5e-4 19.875959,18.549351 0 0 0 0,-6.8e-4 19.875959,18.549351 0 0 0 0,-3.5e-4 19.875959,18.549351 0 0 0 0,-3.4e-4 19.875959,18.549351 0 0 0 0,-3.4e-4 19.875959,18.549351 0 0 0 0,-3.5e-4 19.875959,18.549351 0 0 0 0,-6.8e-4 19.875959,18.549351 0 0 0 0,-3.5e-4 19.875959,18.549351 0 0 0 0,-3.4e-4 19.875959,18.549351 0 0 0 0,-3.4e-4 19.875959,18.549351 0 0 0 0,-3.6e-4 19.875959,18.549351 0 0 0 0,-6.7e-4 19.875959,18.549351 0 0 0 0,-3.5e-4 19.875959,18.549351 0 0 0 0,-3.5e-4 19.875959,18.549351 0 0 0 0,-3.5e-4 19.875959,18.549351 0 0 0 0,-6.7e-4 19.875959,18.549351 0 0 0 0,-3.4e-4 19.875959,18.549351 0 0 0 0,-3.4e-4 19.875959,18.549351 0 0 0 0,-3.6e-4 19.875959,18.549351 0 0 0 0,-3.4e-4 19.875959,18.549351 0 0 0 0,-6.7e-4 19.875959,18.549351 0 0 0 0,-3.4e-4 19.875959,18.549351 0 0 0 0,-3.6e-4 19.875959,18.549351 0 0 0 0,-3.5e-4 19.875959,18.549351 0 0 0 0,-6.6e-4 19.875959,18.549351 0 0 0 0,-3.5e-4 19.875959,18.549351 0 0 0 0,-3.4e-4 19.875959,18.549351 0 0 0 0,-3.6e-4 19.875959,18.549351 0 0 0 0,-3.5e-4 19.875959,18.549351 0 0 0 0,-6.7e-4 19.875959,18.549351 0 0 0 0,-3.4e-4 19.875959,18.549351 0 0 0 0,-3.5e-4 19.875959,18.549351 0 0 0 0,-3.5e-4 19.875959,18.549351 0 0 0 0,-3.5e-4 19.875959,18.549351 0 0 0 0,-6.7e-4 19.875959,18.549351 0 0 0 0,-3.5e-4 19.875959,18.549351 0 0 0 0,-3.5e-4 19.875959,18.549351 0 0 0 0,-3.4e-4 19.875959,18.549351 0 0 0 0,-6.7e-4 19.875959,18.549351 0 0 0 0,-3.6e-4 19.875959,18.549351 0 0 0 0,-3.5e-4 19.875959,18.549351 0 0 0 0,-3.4e-4 19.875959,18.549351 0 0 0 0,-3.4e-4 19.875959,18.549351 0 0 0 0,-6.8e-4 19.875959,18.549351 0 0 0 0,-3.4e-4 19.875959,18.549351 0 0 0 0,-3.5e-4 19.875959,18.549351 0 0 0 0,-3.5e-4 19.875959,18.549351 0 0 0 0,-6.8e-4 19.875959,18.549351 0 0 0 0,-3.4e-4 19.875959,18.549351 0 0 0 0,-3.5e-4 19.875959,18.549351 0 0 0 0,-3.4e-4 19.875959,18.549351 0 0 0 0,-3.5e-4 19.875959,18.549351 0 0 0 0,-6.8e-4 19.875959,18.549351 0 0 0 0,-3.5e-4 19.875959,18.549351 0 0 0 0,-3.4e-4 19.875959,18.549351 0 0 0 0,-3.4e-4 19.875959,18.549351 0 0 0 0,-6.8e-4 19.875959,18.549351 0 0 0 -5.1e-4,-0.0191 19.875959,18.549351 0 0 0 0,-3.4e-4 19.875959,18.549351 0 0 0 0,-3.5e-4 19.875959,18.549351 0 0 0 0,-3.5e-4 19.875959,18.549351 0 0 0 0,-3.4e-4 19.875959,18.549351 0 0 0 0,-6.7e-4 19.875959,18.549351 0 0 0 0,-3.5e-4 19.875959,18.549351 0 0 0 0,-3.5e-4 19.875959,18.549351 0 0 0 0,-3.5e-4 19.875959,18.549351 0 0 0 0,-6.6e-4 19.875959,18.549351 0 0 0 0,-3.5e-4 19.875959,18.549351 0 0 0 0,-3.5e-4 19.875959,18.549351 0 0 0 0,-3.5e-4 19.875959,18.549351 0 0 0 0,-3.5e-4 19.875959,18.549351 0 0 0 0,-6.7e-4 19.875959,18.549351 0 0 0 0,-3.5e-4 19.875959,18.549351 0 0 0 0,-3.4e-4 19.875959,18.549351 0 0 0 0,-3.5e-4 19.875959,18.549351 0 0 0 0,-6.7e-4 19.875959,18.549351 0 0 0 0,-3.6e-4 19.875959,18.549351 0 0 0 0,-3.5e-4 19.875959,18.549351 0 0 0 0,-3.4e-4 19.875959,18.549351 0 0 0 0,-3.4e-4 19.875959,18.549351 0 0 0 0,-6.8e-4 19.875959,18.549351 0 0 0 0,-3.4e-4 19.875959,18.549351 0 0 0 0,-3.5e-4 19.875959,18.549351 0 0 0 0,-3.5e-4 19.875959,18.549351 0 0 0 0,-6.8e-4 19.875959,18.549351 0 0 0 0,-3.4e-4 19.875959,18.549351 0 0 0 0,-3.4e-4 19.875959,18.549351 0 0 0 0,-3.5e-4 19.875959,18.549351 0 0 0 0,-3.5e-4 19.875959,18.549351 0 0 0 0,-6.8e-4 19.875959,18.549351 0 0 0 0,-3.5e-4 19.875959,18.549351 0 0 0 0,-3.4e-4 19.875959,18.549351 0 0 0 0,-3.4e-4 19.875959,18.549351 0 0 0 0,-6.8e-4 19.875959,18.549351 0 0 0 0,-3.5e-4 19.875959,18.549351 0 0 0 0,-3.5e-4 19.875959,18.549351 0 0 0 0,-3.4e-4 19.875959,18.549351 0 0 0 0,-3.5e-4 19.875959,18.549351 0 0 0 0,-6.7e-4 19.875959,18.549351 0 0 0 0,-3.5e-4 19.875959,18.549351 0 0 0 0,-3.5e-4 19.875959,18.549351 0 0 0 0,-3.5e-4 19.875959,18.549351 0 0 0 0,-6.7e-4 19.875959,18.549351 0 0 0 -5.2e-4,-0.0187 19.875959,18.549351 0 0 0 -5.2e-4,-0.0191 19.875959,18.549351 0 0 0 0,-6.7e-4 19.875959,18.549351 0 0 0 0,-3.5e-4 19.875959,18.549351 0 0 0 0,-3.4e-4 19.875959,18.549351 0 0 0 0,-3.5e-4 19.875959,18.549351 0 0 0 0,-3.5e-4 19.875959,18.549351 0 0 0 0,-6.7e-4 19.875959,18.549351 0 0 0 0,-3.5e-4 19.875959,18.549351 0 0 0 0,-3.5e-4 19.875959,18.549351 0 0 0 0,-3.4e-4 19.875959,18.549351 0 0 0 0,-3.5e-4 19.875959,18.549351 0 0 0 0,-6.7e-4 19.875959,18.549351 0 0 0 0,-3.6e-4 19.875959,18.549351 0 0 0 0,-3.4e-4 19.875959,18.549351 0 0 0 0,-3.5e-4 19.875959,18.549351 0 0 0 0,-3.4e-4 19.875959,18.549351 0 0 0 0,-6.8e-4 19.875959,18.549351 0 0 0 0,-3.5e-4 19.875959,18.549351 0 0 0 0,-3.4e-4 19.875959,18.549351 0 0 0 0,-3.5e-4 19.875959,18.549351 0 0 0 0,-3.5e-4 19.875959,18.549351 0 0 0 0,-6.7e-4 19.875959,18.549351 0 0 0 0,-3.5e-4 19.875959,18.549351 0 0 0 0,-3.4e-4 19.875959,18.549351 0 0 0 0,-3.5e-4 19.875959,18.549351 0 0 0 0,-3.6e-4 19.875959,18.549351 0 0 0 0,-6.7e-4 19.875959,18.549351 0 0 0 0,-3.4e-4 19.875959,18.549351 0 0 0 0,-3.4e-4 19.875959,18.549351 0 0 0 0,-3.6e-4 19.875959,18.549351 0 0 0 0,-3.5e-4 19.875959,18.549351 0 0 0 0,-6.7e-4 19.875959,18.549351 0 0 0 0,-3.4e-4 19.875959,18.549351 0 0 0 0,-3.6e-4 19.875959,18.549351 0 0 0 0,-3.4e-4 19.875959,18.549351 0 0 0 0,-3.5e-4 19.875959,18.549351 0 0 0 0,-6.7e-4 19.875959,18.549351 0 0 0 0,-3.6e-4 19.875959,18.549351 0 0 0 0,-3.4e-4 19.875959,18.549351 0 0 0 0,-3.4e-4 19.875959,18.549351 0 0 0 0,-3.5e-4 19.875959,18.549351 0 0 0 0,-6.8e-4 19.875959,18.549351 0 0 0 0,-3.5e-4 19.875959,18.549351 0 0 0 0,-3.4e-4 19.875959,18.549351 0 0 0 0,-3.5e-4 19.875959,18.549351 0 0 0 0,-3.4e-4 19.875959,18.549351 0 0 0 -5.1e-4,-0.0191 19.875959,18.549351 0 0 0 -5.2e-4,-0.0191 19.875959,18.549351 0 0 0 0,-6.8e-4 19.875959,18.549351 0 0 0 0,-3.4e-4 19.875959,18.549351 0 0 0 0,-3.5e-4 19.875959,18.549351 0 0 0 0,-3.4e-4 19.875959,18.549351 0 0 0 0,-3.4e-4 19.875959,18.549351 0 0 0 0,-6.8e-4 19.875959,18.549351 0 0 0 0,-3.5e-4 19.875959,18.549351 0 0 0 0,-3.4e-4 19.875959,18.549351 0 0 0 0,-3.5e-4 19.875959,18.549351 0 0 0 0,-6.8e-4 19.875959,18.549351 0 0 0 0,-3.4e-4 19.875959,18.549351 0 0 0 0,-3.5e-4 19.875959,18.549351 0 0 0 0,-3.4e-4 19.875959,18.549351 0 0 0 0,-3.6e-4 19.875959,18.549351 0 0 0 0,-6.7e-4 19.875959,18.549351 0 0 0 0,-3.5e-4 19.875959,18.549351 0 0 0 0,-3.4e-4 19.875959,18.549351 0 0 0 0,-3.5e-4 19.875959,18.549351 0 0 0 0,-6.7e-4 19.875959,18.549351 0 0 0 0,-3.4e-4 19.875959,18.549351 0 0 0 0,-3.5e-4 19.875959,18.549351 0 0 0 0,-3.6e-4 19.875959,18.549351 0 0 0 0,-3.4e-4 19.875959,18.549351 0 0 0 0,-6.7e-4 19.875959,18.549351 0 0 0 0,-3.4e-4 19.875959,18.549351 0 0 0 0,-3.6e-4 19.875959,18.549351 0 0 0 0,-3.4e-4 19.875959,18.549351 0 0 0 0,-6.7e-4 19.875959,18.549351 0 0 0 0,-3.5e-4 19.875959,18.549351 0 0 0 0,-3.4e-4 19.875959,18.549351 0 0 0 0,-3.6e-4 19.875959,18.549351 0 0 0 0,-3.4e-4 19.875959,18.549351 0 0 0 0,-6.7e-4 19.875959,18.549351 0 0 0 0,-3.5e-4 19.875959,18.549351 0 0 0 0,-3.6e-4 19.875959,18.549351 0 0 0 0,-3.4e-4 19.875959,18.549351 0 0 0 0,-6.7e-4 19.875959,18.549351 0 0 0 0,-3.4e-4 19.875959,18.549351 0 0 0 0,-3.5e-4 19.875959,18.549351 0 0 0 0,-3.5e-4 19.875959,18.549351 0 0 0 0,-3.4e-4 19.875959,18.549351 0 0 0 0,-6.7e-4 19.875959,18.549351 0 0 0 0,-3.5e-4 19.875959,18.549351 0 0 0 0,-3.5e-4 19.875959,18.549351 0 0 0 0,-3.5e-4 19.875959,18.549351 0 0 0 -5.2e-4,-0.0191 19.875959,18.549351 0 0 0 -5.1e-4,-0.0191 19.875959,18.549351 0 0 0 -5.2e-4,-0.0187 19.875959,18.549351 0 0 0 -5.2e-4,-0.0191 19.875959,18.549351 0 0 0 -5.1e-4,-0.0191 19.875959,18.549351 0 0 0 -5.2e-4,-0.0191 19.875959,18.549351 0 0 0 -5.2e-4,-0.0191 19.875959,18.549351 0 0 0 -5.1e-4,-0.0191 19.875959,18.549351 0 0 0 -5.2e-4,-0.0188 19.875959,18.549351 0 0 0 -5.2e-4,-0.0191 19.875959,18.549351 0 0 0 -5.2e-4,-0.0191 19.875959,18.549351 0 0 0 -5.1e-4,-0.0191 19.875959,18.549351 0 0 0 -0.001,-0.0191 19.875959,18.549351 0 0 0 -5.1e-4,-0.0188 19.875959,18.549351 0 0 0 -5.2e-4,-0.0191 19.875959,18.549351 0 0 0 -0.001,-0.0191 19.875959,18.549351 0 0 0 -5.2e-4,-0.0191 19.875959,18.549351 0 0 0 -0.001,-0.0191 19.875959,18.549351 0 0 0 -5.2e-4,-0.0188 19.875959,18.549351 0 0 0 -0.001,-0.0191 19.875959,18.549351 0 0 0 -5.2e-4,-0.0191 19.875959,18.549351 0 0 0 -0.001,-0.0188 19.875959,18.549351 0 0 0 -10e-4,-0.0191 19.875959,18.549351 0 0 0 -5.1e-4,-0.0187 19.875959,18.549351 0 0 0 -0.001,-0.0191 19.875959,18.549351 0 0 0 -5.1e-4,-0.0191 19.875959,18.549351 0 0 0 -0.0641,-0.85476 19.875959,18.549351 0 0 0 -0.10594,-0.8513 19.875959,18.549351 0 0 0 -0.14779,-0.84574 19.875959,18.549351 0 0 0 -0.18966,-0.83844 19.875959,18.549351 0 0 0 -0.23099,-0.82941 19.875959,18.549351 0 0 0 -0.2713,-0.81864 19.875959,18.549351 0 0 0 -0.31213,-0.8058 19.875959,18.549351 0 0 0 -0.3514,-0.79155 19.875959,18.549351 0 0 0 -0.39015,-0.77593 19.875959,18.549351 0 0 0 -0.42788,-0.75786 19.875959,18.549351 0 0 0 -0.46509,-0.73876 19.875959,18.549351 0 0 0 -0.50126,-0.71793 19.875959,18.549351 0 0 0 -0.53641,-0.69569 19.875959,18.549351 0 0 0 -0.56999,-0.67172 19.875959,18.549351 0 0 0 -0.60306,-0.64638 19.875959,18.549351 0 0 0 -0.63407,-0.61962 19.875959,18.549351 0 0 0 -0.66404,-0.59184 19.875959,18.549351 0 0 0 -0.69247,-0.56268 19.875959,18.549351 0 0 0 -0.71985,-0.5321 19.875959,18.549351 0 0 0 -0.74517,-0.50015 19.875959,18.549351 0 0 0 -0.76947,-0.46784 19.875959,18.549351 0 0 0 -0.79168,-0.43416 19.875959,18.549351 0 0 0 -0.81235,-0.39977 19.875959,18.549351 0 0 0 -0.83096,-0.36399 19.875959,18.549351 0 0 0 -0.84853,-0.32788 19.875959,18.549351 0 0 0 -0.86351,-0.29105 19.875959,18.549351 0 0 0 -0.87695,-0.25356 19.875959,18.549351 0 0 0 -0.88883,-0.21534 19.875959,18.549351 0 0 0 -0.89814,-0.17679 19.875959,18.549351 0 0 0 -0.9064,-0.13823 19.875959,18.549351 0 0 0 -0.91209,-0.0986 19.875959,18.549351 0 0 0 -0.91571,-0.0594 19.875959,18.549351 0 0 0 -0.91829,-0.0198 z"
       style="display:none;fill:#ffffff;stroke-width:0.216912"
       id="path15" /><rect
       style="fill:#ffffff;fill-opacity:1;stroke-width:0.264583"
       id="rect1"
       width="5.3171353"
       height="145.84143"
       x="101.27012"
       y="-266.66541"
       transform="rotate(90)" /><path
       id="path1"
       style="fill:#ffffff;stroke-width:0.382599"
       d="M 98.794274,60.269071 A 43.462439,43.462439 0 0 0 60.01802,103.39665 43.462439,43.462439 0 0 0 97.429033,146.42634 c 0.01206,-5.55588 0.02537,-11.11196 0.05461,-16.66773 0.01342,-2.51329 0.0364,-5.0266 0.05301,-7.53988 -25.397696,-7.9302 -25.173699,-34.949161 0.685979,-42.532011 0.170687,-6.473093 0.360406,-12.945752 0.571662,-19.417648 z" /><rect
       style="fill:#ffffff;fill-opacity:1;stroke-width:0.264583"
       id="rect85"
       width="16.159197"
       height="16.159197"
       x="27.113333"
       y="65.962669"
       transform="matrix(1.9331923,1.9331923,-1.9331923,1.9331923,163.44136,-140.37702)"
       clip-path="url(#clipPath84-7)" /></g></svg>
