<?xml version="1.0" encoding="UTF-8" standalone="no"?>
<!-- Created with Inkscape (http://www.inkscape.org/) -->

<svg
   width="400mm"
   height="250mm"
   viewBox="0 0 400 250"
   version="1.1"
   id="svg1"
   sodipodi:docname="walljumpTutorial.svg"
   inkscape:version="1.3 (0e150ed6c4, 2023-07-21)"
   xml:space="preserve"
   xmlns:inkscape="http://www.inkscape.org/namespaces/inkscape"
   xmlns:sodipodi="http://sodipodi.sourceforge.net/DTD/sodipodi-0.dtd"
   xmlns="http://www.w3.org/2000/svg"
   xmlns:svg="http://www.w3.org/2000/svg"><sodipodi:namedview
     id="namedview1"
     pagecolor="#232323"
     bordercolor="#000000"
     borderopacity="0.25"
     inkscape:showpageshadow="2"
     inkscape:pageopacity="0.0"
     inkscape:pagecheckerboard="true"
     inkscape:deskcolor="#d1d1d1"
     inkscape:document-units="mm"
     inkscape:zoom="0.57889226"
     inkscape:cx="443.08763"
     inkscape:cy="168.42512"
     inkscape:window-width="2560"
     inkscape:window-height="1369"
     inkscape:window-x="2552"
     inkscape:window-y="-8"
     inkscape:window-maximized="1"
     inkscape:current-layer="layer1" /><defs
     id="defs1"><clipPath
       clipPathUnits="userSpaceOnUse"
       id="clipPath84"><path
         id="path84"
         style="fill:#ff0000;fill-opacity:1;fill-rule:nonzero;stroke:none;stroke-width:0.264583"
         d="m 35.192768,57.883115 -5.783671,5.783671 11.190606,11.190606 4.968813,4.968813 5.783671,-5.783671 z" /></clipPath></defs><g
     inkscape:label="Layer 1"
     inkscape:groupmode="layer"
     id="layer1"><path
       d="m 131.11613,102.34539 a 19.875959,27.598465 0 0 0 -2.59416,0.23616 19.875959,27.598465 0 0 0 -2.55023,0.70435 19.875959,27.598465 0 0 0 -2.46186,1.16066 19.875959,27.598465 0 0 0 -2.33164,1.59628 19.875959,27.598465 0 0 0 -2.16163,2.00556 19.875959,27.598465 0 0 0 -1.95492,2.38074 19.875959,27.598465 0 0 0 -1.71411,2.71404 19.875959,27.598465 0 0 0 -1.44435,3.00137 19.875959,27.598465 0 0 0 -1.1498,3.23805 19.875959,27.598465 0 0 0 -0.83561,3.41839 19.875959,27.598465 0 0 0 -0.50746,3.54087 19.875959,27.598465 0 0 0 -0.17002,3.60237 19.875959,27.598465 0 0 0 0.17002,3.60184 19.875959,27.598465 0 0 0 0.50746,3.54087 19.875959,27.598465 0 0 0 0.83561,3.4184 19.875959,27.598465 0 0 0 1.1498,3.23804 19.875959,27.598465 0 0 0 1.44435,3.00137 19.875959,27.598465 0 0 0 1.71411,2.71456 19.875959,27.598465 0 0 0 1.95492,2.38022 19.875959,27.598465 0 0 0 2.16163,2.00556 19.875959,27.598465 0 0 0 2.33164,1.5968 19.875959,27.598465 0 0 0 2.46186,1.16014 19.875959,27.598465 0 0 0 2.55023,0.70435 19.875959,27.598465 0 0 0 2.59416,0.23616 19.875959,27.598465 0 0 0 2.59467,-0.23616 19.875959,27.598465 0 0 0 2.54972,-0.70435 19.875959,27.598465 0 0 0 2.46186,-1.16014 19.875959,27.598465 0 0 0 2.33165,-1.5968 19.875959,27.598465 0 0 0 2.16214,-2.00556 19.875959,27.598465 0 0 0 1.9544,-2.38022 19.875959,27.598465 0 0 0 1.71411,-2.71456 19.875959,27.598465 0 0 0 1.44487,-3.00137 19.875959,27.598465 0 0 0 1.1498,-3.23804 19.875959,27.598465 0 0 0 0.83561,-3.4184 19.875959,27.598465 0 0 0 0.50746,-3.54087 19.875959,27.598465 0 0 0 0.17002,-3.60184 19.875959,27.598465 0 0 0 0,-5.2e-4 19.875959,27.598465 0 0 0 0,-5.2e-4 19.875959,27.598465 0 0 0 0,-10e-4 19.875959,27.598465 0 0 0 0,-5.2e-4 19.875959,27.598465 0 0 0 0,-5.2e-4 19.875959,27.598465 0 0 0 0,-5.1e-4 19.875959,27.598465 0 0 0 0,-0.001 19.875959,27.598465 0 0 0 0,-5.1e-4 19.875959,27.598465 0 0 0 0,-5.2e-4 19.875959,27.598465 0 0 0 0,-5.2e-4 19.875959,27.598465 0 0 0 0,-5.1e-4 19.875959,27.598465 0 0 0 0,-0.001 19.875959,27.598465 0 0 0 0,-5.1e-4 19.875959,27.598465 0 0 0 0,-5.2e-4 19.875959,27.598465 0 0 0 0,-5.2e-4 19.875959,27.598465 0 0 0 0,-0.001 19.875959,27.598465 0 0 0 0,-5.2e-4 19.875959,27.598465 0 0 0 0,-5.1e-4 19.875959,27.598465 0 0 0 0,-5.2e-4 19.875959,27.598465 0 0 0 0,-5.2e-4 19.875959,27.598465 0 0 0 0,-0.001 19.875959,27.598465 0 0 0 0,-5.2e-4 19.875959,27.598465 0 0 0 0,-5.1e-4 19.875959,27.598465 0 0 0 0,-5.2e-4 19.875959,27.598465 0 0 0 0,-10e-4 19.875959,27.598465 0 0 0 0,-5.2e-4 19.875959,27.598465 0 0 0 0,-5.2e-4 19.875959,27.598465 0 0 0 0,-5.1e-4 19.875959,27.598465 0 0 0 0,-5.2e-4 19.875959,27.598465 0 0 0 0,-0.001 19.875959,27.598465 0 0 0 0,-5.2e-4 19.875959,27.598465 0 0 0 0,-5.2e-4 19.875959,27.598465 0 0 0 0,-5.2e-4 19.875959,27.598465 0 0 0 0,-0.001 19.875959,27.598465 0 0 0 0,-5.2e-4 19.875959,27.598465 0 0 0 0,-5.1e-4 19.875959,27.598465 0 0 0 0,-5.2e-4 19.875959,27.598465 0 0 0 0,-5.2e-4 19.875959,27.598465 0 0 0 0,-0.001 19.875959,27.598465 0 0 0 0,-5.2e-4 19.875959,27.598465 0 0 0 0,-5.1e-4 19.875959,27.598465 0 0 0 0,-5.2e-4 19.875959,27.598465 0 0 0 0,-0.001 19.875959,27.598465 0 0 0 0,-5.2e-4 19.875959,27.598465 0 0 0 0,-5.2e-4 19.875959,27.598465 0 0 0 0,-5.1e-4 19.875959,27.598465 0 0 0 0,-5.2e-4 19.875959,27.598465 0 0 0 0,-0.001 19.875959,27.598465 0 0 0 0,-5.2e-4 19.875959,27.598465 0 0 0 0,-5.2e-4 19.875959,27.598465 0 0 0 0,-5.1e-4 19.875959,27.598465 0 0 0 0,-5.2e-4 19.875959,27.598465 0 0 0 0,-0.001 19.875959,27.598465 0 0 0 0,-5.2e-4 19.875959,27.598465 0 0 0 0,-5.2e-4 19.875959,27.598465 0 0 0 0,-5.1e-4 19.875959,27.598465 0 0 0 0,-0.001 19.875959,27.598465 0 0 0 0,-5.1e-4 19.875959,27.598465 0 0 0 0,-5.2e-4 19.875959,27.598465 0 0 0 0,-5.2e-4 19.875959,27.598465 0 0 0 0,-5.2e-4 19.875959,27.598465 0 0 0 0,-0.001 19.875959,27.598465 0 0 0 0,-5.2e-4 19.875959,27.598465 0 0 0 0,-5.1e-4 19.875959,27.598465 0 0 0 0,-5.2e-4 19.875959,27.598465 0 0 0 0,-0.001 19.875959,27.598465 0 0 0 0,-5.2e-4 19.875959,27.598465 0 0 0 0,-5.2e-4 19.875959,27.598465 0 0 0 0,-5.1e-4 19.875959,27.598465 0 0 0 0,-5.2e-4 19.875959,27.598465 0 0 0 0,-0.001 19.875959,27.598465 0 0 0 0,-5.2e-4 19.875959,27.598465 0 0 0 0,-5.2e-4 19.875959,27.598465 0 0 0 0,-5.1e-4 19.875959,27.598465 0 0 0 0,-0.001 19.875959,27.598465 0 0 0 0,-5.1e-4 19.875959,27.598465 0 0 0 0,-5.2e-4 19.875959,27.598465 0 0 0 0,-5.2e-4 19.875959,27.598465 0 0 0 0,-5.1e-4 19.875959,27.598465 0 0 0 0,-0.001 19.875959,27.598465 0 0 0 0,-5.1e-4 19.875959,27.598465 0 0 0 0,-5.2e-4 19.875959,27.598465 0 0 0 0,-5.2e-4 19.875959,27.598465 0 0 0 0,-0.001 19.875959,27.598465 0 0 0 0,-5.2e-4 19.875959,27.598465 0 0 0 0,-5.1e-4 19.875959,27.598465 0 0 0 0,-5.2e-4 19.875959,27.598465 0 0 0 0,-5.2e-4 19.875959,27.598465 0 0 0 0,-0.001 19.875959,27.598465 0 0 0 0,-5.2e-4 19.875959,27.598465 0 0 0 0,-5.2e-4 19.875959,27.598465 0 0 0 0,-5.1e-4 19.875959,27.598465 0 0 0 0,-0.001 19.875959,27.598465 0 0 0 0,-5.1e-4 19.875959,27.598465 0 0 0 0,-5.2e-4 19.875959,27.598465 0 0 0 0,-5.2e-4 19.875959,27.598465 0 0 0 0,-5.1e-4 19.875959,27.598465 0 0 0 0,-0.001 19.875959,27.598465 0 0 0 0,-5.1e-4 19.875959,27.598465 0 0 0 0,-5.2e-4 19.875959,27.598465 0 0 0 0,-5.2e-4 19.875959,27.598465 0 0 0 0,-0.001 19.875959,27.598465 0 0 0 0,-5.2e-4 19.875959,27.598465 0 0 0 0,-5.1e-4 19.875959,27.598465 0 0 0 0,-5.2e-4 19.875959,27.598465 0 0 0 0,-5.2e-4 19.875959,27.598465 0 0 0 0,-0.001 19.875959,27.598465 0 0 0 0,-5.2e-4 19.875959,27.598465 0 0 0 0,-5.1e-4 19.875959,27.598465 0 0 0 0,-5.2e-4 19.875959,27.598465 0 0 0 0,-10e-4 19.875959,27.598465 0 0 0 0,-5.2e-4 19.875959,27.598465 0 0 0 0,-5.2e-4 19.875959,27.598465 0 0 0 0,-5.1e-4 19.875959,27.598465 0 0 0 0,-5.2e-4 19.875959,27.598465 0 0 0 0,-0.001 19.875959,27.598465 0 0 0 0,-5.1e-4 19.875959,27.598465 0 0 0 0,-5.2e-4 19.875959,27.598465 0 0 0 0,-5.2e-4 19.875959,27.598465 0 0 0 0,-0.001 19.875959,27.598465 0 0 0 0,-5.2e-4 19.875959,27.598465 0 0 0 0,-5.1e-4 19.875959,27.598465 0 0 0 0,-5.2e-4 19.875959,27.598465 0 0 0 0,-5.2e-4 19.875959,27.598465 0 0 0 0,-10e-4 19.875959,27.598465 0 0 0 0,-5.2e-4 19.875959,27.598465 0 0 0 0,-5.1e-4 19.875959,27.598465 0 0 0 0,-5.2e-4 19.875959,27.598465 0 0 0 0,-0.001 19.875959,27.598465 0 0 0 0,-5.2e-4 19.875959,27.598465 0 0 0 0,-5.2e-4 19.875959,27.598465 0 0 0 0,-5.1e-4 19.875959,27.598465 0 0 0 0,-5.2e-4 19.875959,27.598465 0 0 0 0,-0.001 19.875959,27.598465 0 0 0 0,-5.2e-4 19.875959,27.598465 0 0 0 0,-5.2e-4 19.875959,27.598465 0 0 0 0,-5.1e-4 19.875959,27.598465 0 0 0 0,-5.2e-4 19.875959,27.598465 0 0 0 0,-0.001 19.875959,27.598465 0 0 0 0,-5.2e-4 19.875959,27.598465 0 0 0 0,-5.2e-4 19.875959,27.598465 0 0 0 0,-5.1e-4 19.875959,27.598465 0 0 0 0,-5.2e-4 19.875959,27.598465 0 0 0 0,-0.001 19.875959,27.598465 0 0 0 0,-5.1e-4 19.875959,27.598465 0 0 0 0,-5.2e-4 19.875959,27.598465 0 0 0 0,-5.2e-4 19.875959,27.598465 0 0 0 0,-5.1e-4 19.875959,27.598465 0 0 0 0,-0.001 19.875959,27.598465 0 0 0 0,-5.1e-4 19.875959,27.598465 0 0 0 0,-5.2e-4 19.875959,27.598465 0 0 0 0,-5.2e-4 19.875959,27.598465 0 0 0 0,-5.1e-4 19.875959,27.598465 0 0 0 0,-0.001 19.875959,27.598465 0 0 0 0,-5.1e-4 19.875959,27.598465 0 0 0 0,-5.2e-4 19.875959,27.598465 0 0 0 0,-5.2e-4 19.875959,27.598465 0 0 0 0,-5.1e-4 19.875959,27.598465 0 0 0 0,-0.001 19.875959,27.598465 0 0 0 0,-5.1e-4 19.875959,27.598465 0 0 0 0,-5.2e-4 19.875959,27.598465 0 0 0 0,-5.2e-4 19.875959,27.598465 0 0 0 0,-5.1e-4 19.875959,27.598465 0 0 0 0,-10e-4 19.875959,27.598465 0 0 0 0,-5.1e-4 19.875959,27.598465 0 0 0 0,-5.2e-4 19.875959,27.598465 0 0 0 0,-5.2e-4 19.875959,27.598465 0 0 0 0,-5.1e-4 19.875959,27.598465 0 0 0 0,-0.001 19.875959,27.598465 0 0 0 0,-5.1e-4 19.875959,27.598465 0 0 0 0,-5.2e-4 19.875959,27.598465 0 0 0 0,-5.2e-4 19.875959,27.598465 0 0 0 0,-5.2e-4 19.875959,27.598465 0 0 0 0,-0.001 19.875959,27.598465 0 0 0 0,-5.2e-4 19.875959,27.598465 0 0 0 0,-5.1e-4 19.875959,27.598465 0 0 0 0,-5.2e-4 19.875959,27.598465 0 0 0 0,-5.2e-4 19.875959,27.598465 0 0 0 0,-0.001 19.875959,27.598465 0 0 0 0,-5.2e-4 19.875959,27.598465 0 0 0 0,-5.1e-4 19.875959,27.598465 0 0 0 0,-5.2e-4 19.875959,27.598465 0 0 0 0,-0.001 19.875959,27.598465 0 0 0 0,-5.2e-4 19.875959,27.598465 0 0 0 0,-5.2e-4 19.875959,27.598465 0 0 0 0,-5.1e-4 19.875959,27.598465 0 0 0 0,-5.2e-4 19.875959,27.598465 0 0 0 0,-0.001 19.875959,27.598465 0 0 0 0,-5.2e-4 19.875959,27.598465 0 0 0 0,-5.2e-4 19.875959,27.598465 0 0 0 0,-5.1e-4 19.875959,27.598465 0 0 0 0,-10e-4 19.875959,27.598465 0 0 0 0,-5.1e-4 19.875959,27.598465 0 0 0 0,-5.2e-4 19.875959,27.598465 0 0 0 0,-5.2e-4 19.875959,27.598465 0 0 0 0,-5.1e-4 19.875959,27.598465 0 0 0 0,-0.001 19.875959,27.598465 0 0 0 0,-5.1e-4 19.875959,27.598465 0 0 0 0,-5.2e-4 19.875959,27.598465 0 0 0 0,-5.2e-4 19.875959,27.598465 0 0 0 0,-5.2e-4 19.875959,27.598465 0 0 0 0,-0.001 19.875959,27.598465 0 0 0 0,-5.2e-4 19.875959,27.598465 0 0 0 0,-5.1e-4 19.875959,27.598465 0 0 0 0,-5.2e-4 19.875959,27.598465 0 0 0 0,-10e-4 19.875959,27.598465 0 0 0 0,-5.2e-4 19.875959,27.598465 0 0 0 0,-5.2e-4 19.875959,27.598465 0 0 0 0,-5.1e-4 19.875959,27.598465 0 0 0 0,-5.2e-4 19.875959,27.598465 0 0 0 0,-0.001 19.875959,27.598465 0 0 0 0,-5.2e-4 19.875959,27.598465 0 0 0 0,-5.2e-4 19.875959,27.598465 0 0 0 0,-5.1e-4 19.875959,27.598465 0 0 0 0,-0.001 19.875959,27.598465 0 0 0 0,-5.1e-4 19.875959,27.598465 0 0 0 0,-5.2e-4 19.875959,27.598465 0 0 0 0,-5.2e-4 19.875959,27.598465 0 0 0 0,-5.1e-4 19.875959,27.598465 0 0 0 0,-10e-4 19.875959,27.598465 0 0 0 0,-5.1e-4 19.875959,27.598465 0 0 0 0,-5.2e-4 19.875959,27.598465 0 0 0 0,-5.2e-4 19.875959,27.598465 0 0 0 0,-0.001 19.875959,27.598465 0 0 0 0,-5.2e-4 19.875959,27.598465 0 0 0 -5.2e-4,-0.0284 19.875959,27.598465 0 0 0 0,-5.2e-4 19.875959,27.598465 0 0 0 0,-5.1e-4 19.875959,27.598465 0 0 0 0,-5.2e-4 19.875959,27.598465 0 0 0 0,-0.001 19.875959,27.598465 0 0 0 0,-5.2e-4 19.875959,27.598465 0 0 0 0,-5.2e-4 19.875959,27.598465 0 0 0 0,-5.1e-4 19.875959,27.598465 0 0 0 0,-0.001 19.875959,27.598465 0 0 0 0,-5.1e-4 19.875959,27.598465 0 0 0 0,-5.2e-4 19.875959,27.598465 0 0 0 0,-5.2e-4 19.875959,27.598465 0 0 0 0,-5.1e-4 19.875959,27.598465 0 0 0 0,-0.001 19.875959,27.598465 0 0 0 0,-5.2e-4 19.875959,27.598465 0 0 0 0,-5.1e-4 19.875959,27.598465 0 0 0 0,-5.2e-4 19.875959,27.598465 0 0 0 0,-10e-4 19.875959,27.598465 0 0 0 0,-5.2e-4 19.875959,27.598465 0 0 0 0,-5.2e-4 19.875959,27.598465 0 0 0 0,-5.1e-4 19.875959,27.598465 0 0 0 0,-5.2e-4 19.875959,27.598465 0 0 0 0,-0.001 19.875959,27.598465 0 0 0 0,-5.2e-4 19.875959,27.598465 0 0 0 0,-5.2e-4 19.875959,27.598465 0 0 0 0,-5.1e-4 19.875959,27.598465 0 0 0 0,-0.001 19.875959,27.598465 0 0 0 0,-5.1e-4 19.875959,27.598465 0 0 0 0,-5.2e-4 19.875959,27.598465 0 0 0 0,-5.2e-4 19.875959,27.598465 0 0 0 0,-5.1e-4 19.875959,27.598465 0 0 0 0,-10e-4 19.875959,27.598465 0 0 0 0,-5.1e-4 19.875959,27.598465 0 0 0 0,-5.2e-4 19.875959,27.598465 0 0 0 0,-5.2e-4 19.875959,27.598465 0 0 0 0,-0.001 19.875959,27.598465 0 0 0 0,-5.2e-4 19.875959,27.598465 0 0 0 0,-5.1e-4 19.875959,27.598465 0 0 0 0,-5.2e-4 19.875959,27.598465 0 0 0 0,-5.2e-4 19.875959,27.598465 0 0 0 0,-0.001 19.875959,27.598465 0 0 0 0,-5.2e-4 19.875959,27.598465 0 0 0 0,-5.2e-4 19.875959,27.598465 0 0 0 0,-5.1e-4 19.875959,27.598465 0 0 0 0,-0.001 19.875959,27.598465 0 0 0 0,-5.1e-4 19.875959,27.598465 0 0 0 0,-5.2e-4 19.875959,27.598465 0 0 0 0,-5.2e-4 19.875959,27.598465 0 0 0 0,-5.1e-4 19.875959,27.598465 0 0 0 0,-0.001 19.875959,27.598465 0 0 0 0,-5.1e-4 19.875959,27.598465 0 0 0 0,-5.2e-4 19.875959,27.598465 0 0 0 0,-5.2e-4 19.875959,27.598465 0 0 0 0,-5.1e-4 19.875959,27.598465 0 0 0 0,-0.001 19.875959,27.598465 0 0 0 0,-5.1e-4 19.875959,27.598465 0 0 0 0,-5.2e-4 19.875959,27.598465 0 0 0 0,-5.2e-4 19.875959,27.598465 0 0 0 0,-10e-4 19.875959,27.598465 0 0 0 0,-5.2e-4 19.875959,27.598465 0 0 0 0,-5.1e-4 19.875959,27.598465 0 0 0 0,-5.2e-4 19.875959,27.598465 0 0 0 0,-5.2e-4 19.875959,27.598465 0 0 0 0,-0.001 19.875959,27.598465 0 0 0 0,-5.2e-4 19.875959,27.598465 0 0 0 0,-5.1e-4 19.875959,27.598465 0 0 0 0,-5.2e-4 19.875959,27.598465 0 0 0 0,-0.001 19.875959,27.598465 0 0 0 0,-5.2e-4 19.875959,27.598465 0 0 0 0,-5.2e-4 19.875959,27.598465 0 0 0 0,-5.2e-4 19.875959,27.598465 0 0 0 0,-5.1e-4 19.875959,27.598465 0 0 0 0,-10e-4 19.875959,27.598465 0 0 0 0,-5.1e-4 19.875959,27.598465 0 0 0 0,-5.2e-4 19.875959,27.598465 0 0 0 0,-5.2e-4 19.875959,27.598465 0 0 0 0,-0.001 19.875959,27.598465 0 0 0 0,-5.2e-4 19.875959,27.598465 0 0 0 0,-5.1e-4 19.875959,27.598465 0 0 0 0,-5.2e-4 19.875959,27.598465 0 0 0 0,-5.2e-4 19.875959,27.598465 0 0 0 0,-0.001 19.875959,27.598465 0 0 0 0,-5.2e-4 19.875959,27.598465 0 0 0 0,-5.1e-4 19.875959,27.598465 0 0 0 0,-5.2e-4 19.875959,27.598465 0 0 0 0,-0.001 19.875959,27.598465 0 0 0 0,-5.2e-4 19.875959,27.598465 0 0 0 0,-5.2e-4 19.875959,27.598465 0 0 0 0,-5.1e-4 19.875959,27.598465 0 0 0 0,-5.2e-4 19.875959,27.598465 0 0 0 0,-0.001 19.875959,27.598465 0 0 0 -5.2e-4,-0.0284 19.875959,27.598465 0 0 0 0,-5.1e-4 19.875959,27.598465 0 0 0 0,-5.2e-4 19.875959,27.598465 0 0 0 0,-5.2e-4 19.875959,27.598465 0 0 0 0,-5.1e-4 19.875959,27.598465 0 0 0 0,-10e-4 19.875959,27.598465 0 0 0 0,-5.1e-4 19.875959,27.598465 0 0 0 0,-5.2e-4 19.875959,27.598465 0 0 0 0,-5.2e-4 19.875959,27.598465 0 0 0 0,-5.1e-4 19.875959,27.598465 0 0 0 0,-0.001 19.875959,27.598465 0 0 0 0,-5.1e-4 19.875959,27.598465 0 0 0 0,-5.2e-4 19.875959,27.598465 0 0 0 0,-5.2e-4 19.875959,27.598465 0 0 0 0,-5.1e-4 19.875959,27.598465 0 0 0 0,-0.001 19.875959,27.598465 0 0 0 0,-5.1e-4 19.875959,27.598465 0 0 0 0,-5.2e-4 19.875959,27.598465 0 0 0 0,-5.2e-4 19.875959,27.598465 0 0 0 0,-5.2e-4 19.875959,27.598465 0 0 0 0,-0.001 19.875959,27.598465 0 0 0 0,-5.2e-4 19.875959,27.598465 0 0 0 0,-5.1e-4 19.875959,27.598465 0 0 0 0,-5.2e-4 19.875959,27.598465 0 0 0 0,-5.2e-4 19.875959,27.598465 0 0 0 0,-0.001 19.875959,27.598465 0 0 0 0,-5.2e-4 19.875959,27.598465 0 0 0 0,-5.1e-4 19.875959,27.598465 0 0 0 0,-5.2e-4 19.875959,27.598465 0 0 0 0,-5.2e-4 19.875959,27.598465 0 0 0 0,-0.001 19.875959,27.598465 0 0 0 0,-5.2e-4 19.875959,27.598465 0 0 0 0,-5.1e-4 19.875959,27.598465 0 0 0 0,-5.2e-4 19.875959,27.598465 0 0 0 0,-5.2e-4 19.875959,27.598465 0 0 0 0,-0.001 19.875959,27.598465 0 0 0 0,-5.2e-4 19.875959,27.598465 0 0 0 0,-5.1e-4 19.875959,27.598465 0 0 0 0,-5.2e-4 19.875959,27.598465 0 0 0 0,-5.2e-4 19.875959,27.598465 0 0 0 0,-0.001 19.875959,27.598465 0 0 0 0,-5.2e-4 19.875959,27.598465 0 0 0 0,-5.1e-4 19.875959,27.598465 0 0 0 0,-5.2e-4 19.875959,27.598465 0 0 0 0,-5.2e-4 19.875959,27.598465 0 0 0 0,-10e-4 19.875959,27.598465 0 0 0 0,-5.2e-4 19.875959,27.598465 0 0 0 0,-5.2e-4 19.875959,27.598465 0 0 0 0,-5.1e-4 19.875959,27.598465 0 0 0 0,-0.001 19.875959,27.598465 0 0 0 0,-5.1e-4 19.875959,27.598465 0 0 0 0,-5.2e-4 19.875959,27.598465 0 0 0 0,-5.2e-4 19.875959,27.598465 0 0 0 0,-5.1e-4 19.875959,27.598465 0 0 0 0,-0.001 19.875959,27.598465 0 0 0 0,-5.1e-4 19.875959,27.598465 0 0 0 0,-5.2e-4 19.875959,27.598465 0 0 0 0,-5.2e-4 19.875959,27.598465 0 0 0 0,-0.001 19.875959,27.598465 0 0 0 0,-5.2e-4 19.875959,27.598465 0 0 0 0,-5.1e-4 19.875959,27.598465 0 0 0 0,-5.2e-4 19.875959,27.598465 0 0 0 0,-5.2e-4 19.875959,27.598465 0 0 0 0,-0.001 19.875959,27.598465 0 0 0 0,-5.2e-4 19.875959,27.598465 0 0 0 0,-5.1e-4 19.875959,27.598465 0 0 0 0,-5.2e-4 19.875959,27.598465 0 0 0 0,-5.2e-4 19.875959,27.598465 0 0 0 0,-0.001 19.875959,27.598465 0 0 0 0,-5.2e-4 19.875959,27.598465 0 0 0 0,-5.1e-4 19.875959,27.598465 0 0 0 0,-5.2e-4 19.875959,27.598465 0 0 0 0,-0.001 19.875959,27.598465 0 0 0 0,-5.2e-4 19.875959,27.598465 0 0 0 0,-5.2e-4 19.875959,27.598465 0 0 0 0,-5.2e-4 19.875959,27.598465 0 0 0 0,-5.1e-4 19.875959,27.598465 0 0 0 0,-0.001 19.875959,27.598465 0 0 0 0,-5.1e-4 19.875959,27.598465 0 0 0 0,-5.2e-4 19.875959,27.598465 0 0 0 0,-5.2e-4 19.875959,27.598465 0 0 0 0,-10e-4 19.875959,27.598465 0 0 0 0,-5.2e-4 19.875959,27.598465 0 0 0 0,-5.1e-4 19.875959,27.598465 0 0 0 0,-5.2e-4 19.875959,27.598465 0 0 0 0,-5.2e-4 19.875959,27.598465 0 0 0 0,-0.001 19.875959,27.598465 0 0 0 0,-5.2e-4 19.875959,27.598465 0 0 0 0,-5.1e-4 19.875959,27.598465 0 0 0 0,-5.2e-4 19.875959,27.598465 0 0 0 0,-0.001 19.875959,27.598465 0 0 0 -5.1e-4,-0.0284 19.875959,27.598465 0 0 0 0,-5.1e-4 19.875959,27.598465 0 0 0 0,-5.2e-4 19.875959,27.598465 0 0 0 0,-5.2e-4 19.875959,27.598465 0 0 0 0,-5.1e-4 19.875959,27.598465 0 0 0 0,-10e-4 19.875959,27.598465 0 0 0 0,-5.1e-4 19.875959,27.598465 0 0 0 0,-5.2e-4 19.875959,27.598465 0 0 0 0,-5.2e-4 19.875959,27.598465 0 0 0 0,-0.001 19.875959,27.598465 0 0 0 0,-5.2e-4 19.875959,27.598465 0 0 0 0,-5.1e-4 19.875959,27.598465 0 0 0 0,-5.2e-4 19.875959,27.598465 0 0 0 0,-5.2e-4 19.875959,27.598465 0 0 0 0,-0.001 19.875959,27.598465 0 0 0 0,-5.2e-4 19.875959,27.598465 0 0 0 0,-5.1e-4 19.875959,27.598465 0 0 0 0,-5.2e-4 19.875959,27.598465 0 0 0 0,-0.001 19.875959,27.598465 0 0 0 0,-5.2e-4 19.875959,27.598465 0 0 0 0,-5.2e-4 19.875959,27.598465 0 0 0 0,-5.1e-4 19.875959,27.598465 0 0 0 0,-5.2e-4 19.875959,27.598465 0 0 0 0,-0.001 19.875959,27.598465 0 0 0 0,-5.1e-4 19.875959,27.598465 0 0 0 0,-5.2e-4 19.875959,27.598465 0 0 0 0,-5.2e-4 19.875959,27.598465 0 0 0 0,-10e-4 19.875959,27.598465 0 0 0 0,-5.2e-4 19.875959,27.598465 0 0 0 0,-5.1e-4 19.875959,27.598465 0 0 0 0,-5.2e-4 19.875959,27.598465 0 0 0 0,-5.2e-4 19.875959,27.598465 0 0 0 0,-0.001 19.875959,27.598465 0 0 0 0,-5.2e-4 19.875959,27.598465 0 0 0 0,-5.1e-4 19.875959,27.598465 0 0 0 0,-5.2e-4 19.875959,27.598465 0 0 0 0,-0.001 19.875959,27.598465 0 0 0 0,-5.2e-4 19.875959,27.598465 0 0 0 0,-5.2e-4 19.875959,27.598465 0 0 0 0,-5.1e-4 19.875959,27.598465 0 0 0 0,-5.2e-4 19.875959,27.598465 0 0 0 0,-0.001 19.875959,27.598465 0 0 0 0,-5.2e-4 19.875959,27.598465 0 0 0 0,-5.2e-4 19.875959,27.598465 0 0 0 0,-5.1e-4 19.875959,27.598465 0 0 0 0,-0.001 19.875959,27.598465 0 0 0 -5.2e-4,-0.0279 19.875959,27.598465 0 0 0 -5.2e-4,-0.0284 19.875959,27.598465 0 0 0 0,-0.001 19.875959,27.598465 0 0 0 0,-5.2e-4 19.875959,27.598465 0 0 0 0,-5.1e-4 19.875959,27.598465 0 0 0 0,-5.2e-4 19.875959,27.598465 0 0 0 0,-5.2e-4 19.875959,27.598465 0 0 0 0,-0.001 19.875959,27.598465 0 0 0 0,-5.2e-4 19.875959,27.598465 0 0 0 0,-5.1e-4 19.875959,27.598465 0 0 0 0,-5.2e-4 19.875959,27.598465 0 0 0 0,-5.2e-4 19.875959,27.598465 0 0 0 0,-10e-4 19.875959,27.598465 0 0 0 0,-5.2e-4 19.875959,27.598465 0 0 0 0,-5.1e-4 19.875959,27.598465 0 0 0 0,-5.2e-4 19.875959,27.598465 0 0 0 0,-5.2e-4 19.875959,27.598465 0 0 0 0,-0.001 19.875959,27.598465 0 0 0 0,-5.2e-4 19.875959,27.598465 0 0 0 0,-5.1e-4 19.875959,27.598465 0 0 0 0,-5.2e-4 19.875959,27.598465 0 0 0 0,-5.2e-4 19.875959,27.598465 0 0 0 0,-0.001 19.875959,27.598465 0 0 0 0,-5.2e-4 19.875959,27.598465 0 0 0 0,-5.1e-4 19.875959,27.598465 0 0 0 0,-5.2e-4 19.875959,27.598465 0 0 0 0,-5.2e-4 19.875959,27.598465 0 0 0 0,-10e-4 19.875959,27.598465 0 0 0 0,-5.2e-4 19.875959,27.598465 0 0 0 0,-5.1e-4 19.875959,27.598465 0 0 0 0,-5.2e-4 19.875959,27.598465 0 0 0 0,-5.2e-4 19.875959,27.598465 0 0 0 0,-0.001 19.875959,27.598465 0 0 0 0,-5.2e-4 19.875959,27.598465 0 0 0 0,-5.2e-4 19.875959,27.598465 0 0 0 0,-5.1e-4 19.875959,27.598465 0 0 0 0,-5.2e-4 19.875959,27.598465 0 0 0 0,-0.001 19.875959,27.598465 0 0 0 0,-5.2e-4 19.875959,27.598465 0 0 0 0,-5.2e-4 19.875959,27.598465 0 0 0 0,-5.1e-4 19.875959,27.598465 0 0 0 0,-5.2e-4 19.875959,27.598465 0 0 0 0,-0.001 19.875959,27.598465 0 0 0 0,-5.2e-4 19.875959,27.598465 0 0 0 0,-5.2e-4 19.875959,27.598465 0 0 0 0,-5.1e-4 19.875959,27.598465 0 0 0 0,-5.2e-4 19.875959,27.598465 0 0 0 -5.1e-4,-0.0284 19.875959,27.598465 0 0 0 -5.2e-4,-0.0284 19.875959,27.598465 0 0 0 0,-0.001 19.875959,27.598465 0 0 0 0,-5.1e-4 19.875959,27.598465 0 0 0 0,-5.2e-4 19.875959,27.598465 0 0 0 0,-5.2e-4 19.875959,27.598465 0 0 0 0,-5.1e-4 19.875959,27.598465 0 0 0 0,-0.001 19.875959,27.598465 0 0 0 0,-5.2e-4 19.875959,27.598465 0 0 0 0,-5.1e-4 19.875959,27.598465 0 0 0 0,-5.2e-4 19.875959,27.598465 0 0 0 0,-10e-4 19.875959,27.598465 0 0 0 0,-5.2e-4 19.875959,27.598465 0 0 0 0,-5.2e-4 19.875959,27.598465 0 0 0 0,-5.1e-4 19.875959,27.598465 0 0 0 0,-5.2e-4 19.875959,27.598465 0 0 0 0,-0.001 19.875959,27.598465 0 0 0 0,-5.2e-4 19.875959,27.598465 0 0 0 0,-5.2e-4 19.875959,27.598465 0 0 0 0,-5.1e-4 19.875959,27.598465 0 0 0 0,-0.001 19.875959,27.598465 0 0 0 0,-5.1e-4 19.875959,27.598465 0 0 0 0,-5.2e-4 19.875959,27.598465 0 0 0 0,-5.2e-4 19.875959,27.598465 0 0 0 0,-5.1e-4 19.875959,27.598465 0 0 0 0,-10e-4 19.875959,27.598465 0 0 0 0,-5.1e-4 19.875959,27.598465 0 0 0 0,-5.2e-4 19.875959,27.598465 0 0 0 0,-5.2e-4 19.875959,27.598465 0 0 0 0,-0.001 19.875959,27.598465 0 0 0 0,-5.2e-4 19.875959,27.598465 0 0 0 0,-5.1e-4 19.875959,27.598465 0 0 0 0,-5.2e-4 19.875959,27.598465 0 0 0 0,-5.2e-4 19.875959,27.598465 0 0 0 0,-0.001 19.875959,27.598465 0 0 0 0,-5.2e-4 19.875959,27.598465 0 0 0 0,-5.2e-4 19.875959,27.598465 0 0 0 0,-5.1e-4 19.875959,27.598465 0 0 0 0,-0.001 19.875959,27.598465 0 0 0 0,-5.1e-4 19.875959,27.598465 0 0 0 0,-5.2e-4 19.875959,27.598465 0 0 0 0,-5.2e-4 19.875959,27.598465 0 0 0 0,-5.1e-4 19.875959,27.598465 0 0 0 0,-0.001 19.875959,27.598465 0 0 0 0,-5.1e-4 19.875959,27.598465 0 0 0 0,-5.2e-4 19.875959,27.598465 0 0 0 0,-5.2e-4 19.875959,27.598465 0 0 0 -5.2e-4,-0.0284 19.875959,27.598465 0 0 0 -5.1e-4,-0.0284 19.875959,27.598465 0 0 0 -5.2e-4,-0.0279 19.875959,27.598465 0 0 0 -5.2e-4,-0.0284 19.875959,27.598465 0 0 0 -5.1e-4,-0.0284 19.875959,27.598465 0 0 0 -5.2e-4,-0.0284 19.875959,27.598465 0 0 0 -5.2e-4,-0.0284 19.875959,27.598465 0 0 0 -5.1e-4,-0.0284 19.875959,27.598465 0 0 0 -5.2e-4,-0.0279 19.875959,27.598465 0 0 0 -5.2e-4,-0.0284 19.875959,27.598465 0 0 0 -5.2e-4,-0.0284 19.875959,27.598465 0 0 0 -5.1e-4,-0.0284 19.875959,27.598465 0 0 0 -0.001,-0.0284 19.875959,27.598465 0 0 0 -5.1e-4,-0.0279 19.875959,27.598465 0 0 0 -5.2e-4,-0.0284 19.875959,27.598465 0 0 0 -0.001,-0.0284 19.875959,27.598465 0 0 0 -5.2e-4,-0.0284 19.875959,27.598465 0 0 0 -0.001,-0.0284 19.875959,27.598465 0 0 0 -5.2e-4,-0.0279 19.875959,27.598465 0 0 0 -0.001,-0.0284 19.875959,27.598465 0 0 0 -5.2e-4,-0.0284 19.875959,27.598465 0 0 0 -0.001,-0.0279 19.875959,27.598465 0 0 0 -0.001,-0.0284 19.875959,27.598465 0 0 0 -5.1e-4,-0.0279 19.875959,27.598465 0 0 0 -0.001,-0.0284 19.875959,27.598465 0 0 0 -5.1e-4,-0.0284 19.875959,27.598465 0 0 0 -0.0641,-1.27176 19.875959,27.598465 0 0 0 -0.10594,-1.26659 19.875959,27.598465 0 0 0 -0.14779,-1.25832 19.875959,27.598465 0 0 0 -0.18966,-1.24747 19.875959,27.598465 0 0 0 -0.23099,-1.23403 19.875959,27.598465 0 0 0 -0.2713,-1.21801 19.875959,27.598465 0 0 0 -0.31213,-1.1989 19.875959,27.598465 0 0 0 -0.3514,-1.1777 19.875959,27.598465 0 0 0 -0.39015,-1.15445 19.875959,27.598465 0 0 0 -0.42788,-1.12758 19.875959,27.598465 0 0 0 -0.46509,-1.09916 19.875959,27.598465 0 0 0 -0.50126,-1.06815 19.875959,27.598465 0 0 0 -0.53641,-1.03508 19.875959,27.598465 0 0 0 -0.56999,-0.99942 19.875959,27.598465 0 0 0 -0.60306,-0.9617 19.875959,27.598465 0 0 0 -0.63407,-0.92191 19.875959,27.598465 0 0 0 -0.66404,-0.88057 19.875959,27.598465 0 0 0 -0.69247,-0.83716 19.875959,27.598465 0 0 0 -0.71985,-0.79168 19.875959,27.598465 0 0 0 -0.74517,-0.74414 19.875959,27.598465 0 0 0 -0.76947,-0.69608 19.875959,27.598465 0 0 0 -0.79168,-0.64596 19.875959,27.598465 0 0 0 -0.81235,-0.59479 19.875959,27.598465 0 0 0 -0.83096,-0.54157 19.875959,27.598465 0 0 0 -0.84853,-0.48783 19.875959,27.598465 0 0 0 -0.86351,-0.43304 19.875959,27.598465 0 0 0 -0.87695,-0.37724 19.875959,27.598465 0 0 0 -0.88883,-0.3204 19.875959,27.598465 0 0 0 -0.89814,-0.26303 19.875959,27.598465 0 0 0 -0.9064,-0.20567 19.875959,27.598465 0 0 0 -0.91209,-0.14676 19.875959,27.598465 0 0 0 -0.91571,-0.0884 19.875959,27.598465 0 0 0 -0.91829,-0.0294 z"
       style="fill:#ffffff;stroke-width:0.264583"
       id="path15" /><ellipse
       style="fill:#ffffff;fill-opacity:1;stroke-width:0.264583"
       id="ellipse8"
       cx="281.30551"
       cy="136.67764"
       rx="19.875959"
       ry="27.598465" /><rect
       style="fill:#ffffff;fill-opacity:1;stroke-width:0.264583"
       id="rect8"
       width="82.035805"
       height="22.787724"
       x="46.081833"
       y="207.11508" /><rect
       style="fill:#ffffff;fill-opacity:1;stroke-width:0.264583"
       id="rect9"
       width="82.035805"
       height="22.787724"
       x="267.12274"
       y="208.12788" /><ellipse
       style="fill:#ffffff;fill-opacity:1;stroke-width:0.264583"
       id="ellipse10"
       cx="205.35695"
       cy="44.544682"
       rx="19.875959"
       ry="27.598465" /><rect
       style="fill:#ffffff;fill-opacity:1;stroke-width:0.264583"
       id="rect10"
       width="1.7723784"
       height="35.19437"
       x="36.418888"
       y="176.28198"
       transform="rotate(-15)" /><rect
       style="fill:#ffffff;fill-opacity:1;stroke-width:0.264583"
       id="rect11"
       width="1.7723784"
       height="35.19437"
       x="181.30107"
       y="85.528168"
       transform="rotate(30)" /><rect
       style="fill:#ffffff;fill-opacity:1;stroke-width:0.264583"
       id="rect12"
       width="1.7723784"
       height="35.19437"
       x="217.40562"
       y="-89.346611"
       transform="rotate(76.3)" /><rect
       style="fill:#ffffff;fill-opacity:1;stroke-width:0.264583"
       id="rect13"
       width="5.3171353"
       height="145.84143"
       x="202.0744"
       y="91.120178" /><circle
       style="fill:#ff0000;fill-opacity:1;stroke-width:0.264583"
       id="path19"
       cx="93.57505"
       cy="201.80264"
       r="4.8340063" /><rect
       style="fill:#ffffff;fill-opacity:1;stroke-width:0.221591"
       id="rect60"
       width="8.3907709"
       height="34.375092"
       x="174.22864"
       y="-71.398224"
       transform="rotate(45)" /><rect
       style="fill:#ffffff;fill-opacity:1;stroke-width:0.264583"
       id="rect61"
       width="16.159197"
       height="16.159197"
       x="27.113333"
       y="65.962669"
       transform="matrix(1.1348272,0,0,1.1348272,133.25132,-4.4600278)"
       clip-path="url(#clipPath84)" /><rect
       style="fill:#ffffff;fill-opacity:1;stroke-width:0.220056"
       id="rect84"
       width="8.3326311"
       height="34.136906"
       x="-115.73186"
       y="-251.79163"
       transform="rotate(135)" /><rect
       style="fill:#ffffff;fill-opacity:1;stroke-width:0.264583"
       id="rect85"
       width="16.159197"
       height="16.159197"
       x="27.113333"
       y="65.962669"
       transform="matrix(0,1.1269639,-1.1269639,0,336.80082,56.055857)"
       clip-path="url(#clipPath84)" /></g></svg>
