# Blender 3.6.4
# www.blender.org
mtllib FracturedCube.mtl
o Cube_cell
v 1.000000 1.000000 -1.000000
v -0.095450 0.382407 -0.615472
v -0.342010 0.722730 -0.447626
v 1.000000 -0.122419 -1.000000
v 1.000000 -0.095204 -0.721971
v 0.408796 0.129081 -1.000000
v 0.838351 1.000000 -0.024243
v -0.146674 1.000000 -0.229017
v 1.000000 -0.092501 -0.694882
v 1.000000 1.000000 0.009282
v 0.255512 0.194425 -1.000000
v 0.247700 0.216035 -1.000000
v -0.032097 1.000000 -1.000000
v -0.438139 1.000000 -0.451030
v 1.000000 -0.122419 -1.000000
v 1.000000 -0.095204 -0.721971
v 0.838351 1.000000 -0.024243
v -0.146674 1.000000 -0.229017
v 0.255512 0.194425 -1.000000
v 0.247700 0.216035 -1.000000
v 1.000000 -0.092501 -0.694882
v -0.438139 1.000000 -0.451030
v 1.000000 1.000000 0.009282
v 0.408796 0.129081 -1.000000
v -0.032097 1.000000 -1.000000
vn -0.3899 -0.9165 0.0897
vn -0.1723 -0.5322 0.8289
vn -0.7730 -0.2750 -0.5717
vn -0.3905 -0.9161 0.0914
vn -0.7733 -0.2795 -0.5691
vn -0.5941 -0.1964 0.7800
vn -0.0000 1.0000 -0.0000
vn 1.0000 -0.0000 -0.0000
vn -0.0000 -0.0000 -1.0000
vn -0.1716 -0.5337 0.8281
vn -0.7726 -0.2757 -0.5719
vn -0.1708 -0.5326 0.8290
vn -0.1717 -0.5337 0.8280
vt 0.856688 0.000000
vt 0.857372 0.790084
vt 0.066692 0.000000
vt 0.153287 0.000000
vt 1.000000 0.000000
vt 1.000000 0.847768
vt 0.917236 0.025534
vt 1.000000 1.000000
vt 0.152851 0.152851
vt 0.000000 0.000000
vt 1.000000 0.143312
vt 1.000000 0.933308
vt 1.000000 0.916330
vt 0.884044 0.884044
vt 1.000000 0.846713
vt 0.152851 0.000000
vt 0.768334 0.596373
vt 0.625000 0.626160
vt 0.754012 0.500000
vt 0.625000 0.500000
vt 0.488437 0.538140
vt 0.488100 0.534754
vt 0.516135 0.426100
vt 0.527004 0.405963
vt 0.956425 0.000000
vt 0.847768 0.847768
vt 0.916330 0.916330
vt 0.956425 0.956425
vt 0.884044 0.000000
vt 0.804767 0.568621
vt 0.645206 0.621970
vt 0.484698 0.500000
vt 0.625000 0.370988
vt 0.524303 0.406939
vt 0.956100 0.938495
s 0
usemtl Material
f 24/1/1 4/2/1 16/3/1
f 18/4/2 3/5/2 17/6/2
f 25/7/3 3/8/3 22/9/3
f 2/10/4 24/11/4 16/12/4
f 2/10/5 20/13/5 19/14/5
f 3/5/6 18/15/6 22/16/6
f 8/17/7 23/18/7 13/19/7
f 1/20/8 9/21/8 5/22/8
f 1/20/9 6/23/9 12/24/9
f 21/25/10 17/26/10 3/10/10
f 25/7/11 20/27/11 3/8/11
f 16/12/4 21/28/4 2/10/4
f 2/10/4 19/29/4 24/11/4
f 2/10/5 3/5/5 20/13/5
f 13/19/7 14/30/7 8/17/7
f 8/17/7 7/31/7 23/18/7
f 23/18/7 1/20/7 13/19/7
f 5/22/8 15/32/8 1/20/8
f 1/20/8 23/18/8 9/21/8
f 12/24/9 13/33/9 1/20/9
f 1/20/9 15/32/9 6/23/9
f 6/23/9 11/34/9 12/24/9
f 3/10/12 2/10/12 21/25/12
f 21/25/13 10/35/13 17/26/13
o Cube_cell.001
v -1.000000 -1.000000 -1.000000
v -0.557537 0.376831 -0.551556
v -0.258224 -1.000000 0.025068
v -0.235901 -0.905896 -1.000000
v -0.213733 -1.000000 -1.000000
v -1.000000 0.283935 -0.618261
v -1.000000 0.373230 -0.651227
v -0.275543 -1.000000 0.021114
v -1.000000 -1.000000 -0.145704
v -0.479950 0.127717 -1.000000
v -1.000000 0.187045 -0.999516
v -0.235901 -0.905896 -1.000000
v -0.213733 -1.000000 -1.000000
v -1.000000 0.283935 -0.618261
v -1.000000 0.373230 -0.651227
v -0.275543 -1.000000 0.021114
v -1.000000 -1.000000 -0.145704
v -0.479950 0.127717 -1.000000
v -1.000000 0.187045 -0.999516
v -0.258224 -1.000000 0.025068
vn 0.9725 0.2291 0.0422
vn -0.2094 0.3387 0.9173
vn -0.2112 0.3376 0.9173
vn 0.9724 0.2296 0.0407
vn 0.0996 0.8770 -0.4700
vn 0.0985 0.8776 -0.4691
vn -1.0000 -0.0000 -0.0000
vn -0.0000 -1.0000 -0.0000
vn -0.0010 -0.0002 -1.0000
vn -0.0000 0.0001 -1.0000
vn -0.0000 0.0004 -1.0000
vt 0.100755 0.000000
vt 1.000000 0.965002
vt 0.064799 0.030008
vt 0.898189 0.000000
vt 1.000000 0.964904
vt 0.965002 0.965002
vt 0.964904 0.964904
vt 0.062475 0.062475
vt 0.964645 0.062674
vt 1.000000 0.000000
vt 1.000000 0.899245
vt 0.100736 0.000000
vt 1.000000 1.000000
vt 0.100736 0.100736
vt 1.000000 0.101368
vt 0.101368 0.101368
vt 1.000000 0.101811
vt 0.375000 0.250000
vt 0.535492 0.202283
vt 0.546654 0.206403
vt 0.223283 0.500000
vt 0.215557 0.627639
vt 0.125000 0.606787
vt 0.375000 0.348283
vt 0.523348 0.250000
vt 0.515965 0.315006
vt 0.000000 0.000000
vt 1.000000 0.062475
vt 0.375000 0.143213
vt 0.125000 0.500000
vt 0.217722 0.628134
vt 0.386763 0.345512
s 0
usemtl Material
f 37/36/14 45/37/14 38/38/14
f 40/39/15 41/40/15 45/41/15
f 41/42/16 39/43/16 42/44/16
f 27/45/17 37/46/17 43/47/17
f 27/48/18 43/49/18 44/50/18
f 44/51/19 40/52/19 27/48/19
f 26/53/20 31/54/20 32/55/20
f 30/56/21 33/57/21 34/58/21
f 30/59/22 36/60/22 35/61/22
f 37/36/14 27/45/14 45/37/14
f 45/41/15 27/62/15 40/39/15
f 40/39/15 39/63/15 41/40/15
f 32/55/20 36/60/20 26/53/20
f 26/53/20 34/64/20 31/54/20
f 34/58/21 26/65/21 30/56/21
f 30/56/21 28/66/21 33/57/21
f 35/61/23 29/67/23 30/59/23
f 30/59/24 26/53/24 36/60/24
o Cube_cell.002
v 1.000000 1.000000 1.000000
v 1.000000 -1.000000 1.000000
v -0.460120 0.465882 -0.459723
v -0.466217 0.473777 -0.488007
v -0.447334 0.409710 -0.511321
v -0.342140 0.720001 -0.447300
v -0.097486 0.382354 -0.614419
v 0.518073 1.000000 1.000000
v 0.162111 -1.000000 0.869137
v 0.243305 -1.000000 1.000000
v -0.042409 1.000000 0.094226
v -0.140938 1.000000 -0.212733
v -0.145216 1.000000 -0.226133
v 0.088371 -1.000000 0.179673
v 0.100176 -1.000000 0.175621
v 1.000000 -1.000000 -0.131162
v 1.000000 -0.093147 -0.693246
v 1.000000 1.000000 0.011575
v 0.518073 1.000000 1.000000
v 0.243305 -1.000000 1.000000
v 0.162111 -1.000000 0.869137
v 0.088371 -1.000000 0.179673
v 1.000000 -0.093147 -0.693246
v 1.000000 1.000000 0.011575
v 1.000000 -1.000000 -0.131162
v -0.042409 1.000000 0.094226
v -0.140938 1.000000 -0.212733
v -0.145216 1.000000 -0.226133
v 0.100176 -1.000000 0.175621
vn -0.2780 -0.5063 -0.8163
vn 0.1716 0.5341 -0.8278
vn -0.8768 0.3797 0.2950
vn -0.9488 -0.2909 0.1233
vn -0.9454 -0.3099 0.1011
vn -0.8751 0.3940 0.2809
vn -0.8752 0.3948 0.2794
vn -0.2489 0.2788 -0.9276
vn -0.2536 0.2639 -0.9306
vn -0.9451 -0.3129 0.0944
vn -0.2800 -0.5062 -0.8157
vn -0.8439 0.1166 0.5236
vn -0.0000 1.0000 -0.0000
vn -0.0000 -0.0000 1.0000
vn -0.0000 -1.0000 -0.0000
vn 1.0000 -0.0000 -0.0000
vn -0.2783 -0.5060 -0.8164
vn 0.1719 0.5333 -0.8283
vn 0.1718 0.5338 -0.8280
vn -0.8446 0.1160 0.5226
vn -0.8438 0.1167 0.5238
vt 0.956170 0.000000
vt 0.965224 0.965224
vt 0.000000 0.000000
vt 0.956788 0.043069
vt 1.000000 0.000000
vt 0.087304 0.000000
vt 1.000000 1.000000
vt 1.000000 0.032816
vt 0.967311 0.000000
vt 0.967354 0.967354
vt 1.000000 0.912696
vt 0.087135 0.000000
vt 0.087135 0.087135
vt 0.152104 0.000000
vt 1.000000 0.032689
vt 0.965876 0.965876
vt 0.086124 0.000000
vt 0.967183 0.000000
vt 0.632674 0.023741
vt 0.767617 0.598408
vt 0.685241 0.750000
vt 0.625000 0.626447
vt 0.375000 0.750000
vt 0.625000 0.810241
vt 0.375000 0.844587
vt 0.280413 0.750000
vt 0.261046 0.647459
vt 0.375000 0.608605
vt 0.625000 0.750000
vt 0.375000 0.608605
vt 0.488357 0.538344
vt 0.965102 0.010564
vt 1.000000 0.847896
vt 0.956170 0.956170
vt 1.000000 0.965224
vt 0.967954 0.953063
vt 0.768152 0.596733
vt 0.755167 0.637177
vt 0.270253 0.733556
vt 0.262522 0.646953
s 0
usemtl Material
f 68/68/25 74/69/25 52/70/25
f 69/71/26 52/70/26 51/72/26
f 71/73/27 49/72/27 48/74/27
f 66/75/28 48/74/28 49/70/28
f 67/76/29 66/77/29 49/70/29
f 49/72/30 71/78/30 72/79/30
f 51/72/31 72/80/31 73/81/31
f 51/70/32 52/72/32 49/74/32
f 52/70/33 50/72/33 49/74/33
f 50/70/34 67/82/34 49/74/34
f 52/72/35 67/83/35 50/70/35
f 71/84/36 66/85/36 65/86/36
f 57/87/37 53/88/37 63/89/37
f 47/90/38 53/91/38 55/92/38
f 55/93/39 59/94/39 61/95/39
f 46/96/40 61/97/40 62/98/40
f 68/68/41 70/99/41 74/69/41
f 51/72/42 73/100/42 69/71/42
f 69/71/43 68/101/43 52/70/43
f 51/72/31 49/74/31 72/80/31
f 52/72/35 74/102/35 67/83/35
f 65/86/44 64/103/44 71/84/44
f 71/84/45 48/70/45 66/85/45
f 63/89/37 58/104/37 57/87/37
f 57/87/37 56/105/37 53/88/37
f 53/88/37 46/96/37 63/89/37
f 47/90/38 46/96/38 53/91/38
f 61/95/39 47/90/39 55/93/39
f 55/93/39 54/106/39 59/94/39
f 59/94/39 60/107/39 61/95/39
f 62/98/40 63/89/40 46/96/40
f 46/96/40 47/90/40 61/97/40
o Cube_cell.003
v -0.461080 0.465349 -0.456698
v 0.124176 -1.000000 1.000000
v 0.146374 -1.000000 0.923055
v -0.311233 -0.366594 1.000000
v 0.414666 0.262944 1.000000
v 0.191383 -1.000000 0.920139
v 0.240795 -1.000000 1.000000
v 0.516085 1.000000 1.000000
v 0.037742 1.000000 0.921150
v 0.045337 1.000000 1.000000
v -0.601363 0.055556 1.000000
v -0.040778 1.000000 0.101701
v 0.161276 -1.000000 0.871603
v 0.124176 -1.000000 1.000000
v 0.146374 -1.000000 0.923055
v 0.414666 0.262944 1.000000
v 0.516085 1.000000 1.000000
v 0.240795 -1.000000 1.000000
v 0.191383 -1.000000 0.920139
v 0.037742 1.000000 0.921150
v 0.045337 1.000000 1.000000
v -0.601363 0.055556 1.000000
v 0.161276 -1.000000 0.871603
v -0.040778 1.000000 0.101701
v -0.311233 -0.366594 1.000000
vn -0.8017 -0.5511 -0.2313
vn 0.8446 -0.1163 -0.5226
vn -0.8225 0.5632 0.0792
vn -0.8220 0.5640 0.0788
vn -0.8016 -0.5509 -0.2322
vn -0.0000 1.0000 -0.0000
vn -0.0000 -0.0000 1.0000
vn -0.0000 -1.0000 -0.0000
vn 0.8442 -0.1162 -0.5233
vn -0.0000 0.0001 1.0000
vn 0.8439 -0.1164 -0.5238
vn 0.8440 -0.1161 -0.5236
vt 0.954150 0.000000
vt 0.954139 0.577351
vt 0.373926 0.000000
vt 0.625185 0.000000
vt 0.624184 0.600333
vt 0.023832 0.000000
vt 0.914371 0.914371
vt 0.967080 0.000000
vt 0.966709 0.936363
vt 1.000000 0.000000
vt 1.000000 0.914371
vt 0.086137 0.000000
vt 1.000000 0.626074
vt 0.000000 0.000000
vt 0.966971 0.000000
vt 0.685489 0.750000
vt 0.745282 0.740144
vt 0.744333 0.750000
vt 0.454176 0.913904
vt 0.375000 0.844901
vt 0.625000 0.810489
vt 0.265522 0.750000
vt 0.270160 0.733950
vt 0.273923 0.740017
vt 0.913863 0.000000
vt 0.625185 0.625185
vt 0.966971 0.966971
vt 1.000000 0.045850
vt 0.967080 0.967080
vt 0.755097 0.637713
vt 0.625000 0.869333
vt 0.506945 0.950170
vt 0.375000 0.859478
vt 0.532868 0.823167
vt 0.280099 0.750000
vt 0.268297 0.740382
vt 0.976129 0.924081
vt 0.023832 0.023832
s 0
usemtl Material
f 89/108/46 88/109/46 99/110/46
f 79/111/47 92/112/47 93/113/47
f 94/114/48 96/115/48 95/116/48
f 75/117/49 94/118/49 98/119/49
f 99/120/50 75/121/50 97/122/50
f 91/123/51 83/124/51 84/125/51
f 78/126/52 81/127/52 91/128/52
f 76/129/53 87/130/53 80/131/53
f 98/132/54 79/133/54 97/134/54
f 94/114/48 75/121/48 96/115/48
f 97/122/50 89/135/50 99/120/50
f 99/120/50 96/136/50 75/121/50
f 91/123/51 86/137/51 83/124/51
f 84/138/52 85/139/52 78/126/52
f 78/126/52 76/140/52 81/127/52
f 81/127/55 90/141/55 91/128/55
f 91/128/52 84/138/52 78/126/52
f 80/131/53 81/142/53 76/129/53
f 76/129/53 77/143/53 87/130/53
f 97/134/56 75/121/56 98/132/56
f 98/132/54 82/144/54 79/133/54
f 79/133/57 93/145/57 97/134/57
o Cube_cell.004
v -1.000000 1.000000 -1.000000
v -0.098385 0.383178 -0.615870
v -0.343169 0.721539 -0.448384
v -0.557648 0.378719 -0.551088
v -0.449100 0.409819 -0.513846
v -0.466675 0.474348 -0.489232
v 0.213363 0.191561 -1.000000
v -0.479076 0.129933 -1.000000
v -1.000000 0.188925 -1.000000
v 0.235893 0.244020 -1.000000
v -0.033970 1.000000 -1.000000
v -0.413653 1.000000 -0.486330
v 0.253255 0.195168 -1.000000
v -0.429830 1.000000 -0.464512
v -1.000000 0.485177 -0.603683
v -1.000000 0.375047 -0.651975
v -1.000000 0.495232 -0.599316
v -1.000000 1.000000 -0.569028
v -0.510732 1.000000 -0.466486
v -1.000000 0.543722 -0.596370
v -0.439458 1.000000 -0.451599
v 0.213363 0.191561 -1.000000
v -0.479076 0.129933 -1.000000
v 0.235893 0.244020 -1.000000
v -0.033970 1.000000 -1.000000
v -0.413653 1.000000 -0.486330
v -1.000000 0.485177 -0.603683
v -1.000000 0.375047 -0.651975
v -0.510732 1.000000 -0.466486
v -0.439458 1.000000 -0.451599
v -1.000000 1.000000 -0.569028
v -1.000000 0.543722 -0.596370
v -1.000000 0.188925 -1.000000
v 0.253255 0.195168 -1.000000
v -0.429830 1.000000 -0.464512
v -1.000000 0.495232 -0.599316
vn 0.0771 -0.8663 0.4936
vn 0.7729 0.2759 0.5713
vn -0.0994 -0.8776 0.4690
vn 0.7724 0.2745 0.5727
vn -0.2013 -0.3934 0.8971
vn -0.1947 -0.3954 0.8976
vn -0.2008 -0.3902 0.8986
vn -0.2048 -0.0585 0.9771
vn 0.0782 -0.8653 0.4951
vn 0.7712 0.2733 0.5750
vn 0.2500 -0.2782 0.9274
vn 0.2476 -0.2857 0.9258
vn -0.0000 1.0000 -0.0000
vn -1.0000 -0.0000 -0.0000
vn -0.0000 -0.0000 -1.0000
vn -0.2041 -0.0593 0.9772
vn -0.0997 -0.8774 0.4692
vn 0.0782 -0.8655 0.4948
vn 0.0012 1.0000 -0.0000
vn -0.2040 -0.0595 0.9772
vn -0.2040 -0.0594 0.9772
vt 0.099738 0.000000
vt 1.000000 0.000000
vt 1.000000 0.899461
vt 0.057151 0.000000
vt 0.916771 0.000000
vt 0.916826 0.860002
vt 1.000000 1.000000
vt 0.900184 0.001404
vt 0.899461 0.899461
vt 1.000000 0.885370
vt 0.057151 0.057151
vt 0.075344 0.000000
vt 0.101372 0.101372
vt 1.000000 0.102346
vt 0.000000 0.000000
vt 0.914440 0.000000
vt 1.000000 0.101372
vt 0.909382 0.825554
vt 0.084141 0.000000
vt 0.909125 0.000000
vt 0.885370 0.885370
vt 1.000000 0.924656
vt 0.847103 0.847103
vt 0.803729 0.566936
vt 0.754246 0.500000
vt 0.875000 0.553871
vt 0.625000 0.250000
vt 0.546881 0.206497
vt 0.561904 0.199915
vt 0.523945 0.401670
vt 0.523616 0.250000
vt 0.625000 0.370754
vt 0.909125 0.909125
vt 0.914440 0.914440
vt 0.102346 0.102346
vt 0.916771 0.916771
vt 1.000000 0.900262
vt 0.813842 0.566689
vt 0.804932 0.568550
vt 0.801707 0.564209
vt 0.875000 0.500000
vt 0.567965 0.199546
vt 0.625000 0.196129
vt 0.560647 0.200460
vt 0.530503 0.404487
vt 0.524396 0.406657
vt 0.516242 0.315116
vt 1.000000 0.847103
vt 0.084141 0.084141
s 0
usemtl Material
f 121/146/58 103/147/58 122/148/58
f 125/149/59 123/150/59 124/151/59
f 103/152/60 132/153/60 122/154/60
f 133/155/61 125/156/61 134/157/61
f 126/158/62 127/159/62 103/152/62
f 104/160/63 105/147/63 103/152/63
f 103/152/64 135/161/64 126/162/64
f 130/163/65 131/164/65 128/165/65
f 103/147/66 133/166/66 101/160/66
f 102/160/67 134/167/67 120/168/67
f 102/160/68 105/147/68 101/152/68
f 105/160/69 104/147/69 101/152/69
f 113/169/70 110/170/70 117/171/70
f 100/172/71 115/173/71 116/174/71
f 106/175/72 108/176/72 110/177/72
f 102/147/73 128/178/73 135/179/73
f 103/152/74 127/180/74 132/153/74
f 134/157/61 101/147/61 133/155/61
f 133/155/61 123/181/61 125/156/61
f 103/152/64 105/160/64 135/161/64
f 101/160/75 104/160/75 103/147/75
f 103/147/66 121/182/66 133/166/66
f 102/160/67 101/147/67 134/167/67
f 118/183/70 129/184/70 113/169/70
f 113/169/76 111/185/76 110/170/76
f 110/170/70 100/186/70 117/171/70
f 117/171/70 118/183/70 113/169/70
f 119/187/71 117/188/71 100/172/71
f 100/172/71 108/176/71 115/173/71
f 115/173/71 114/189/71 116/174/71
f 116/174/71 119/187/71 100/172/71
f 109/190/72 112/191/72 106/175/72
f 106/175/72 107/192/72 108/176/72
f 108/176/72 100/172/72 110/177/72
f 110/177/72 109/190/72 106/175/72
f 135/179/77 105/160/77 102/147/77
f 102/147/73 120/193/73 128/178/73
f 128/178/78 131/194/78 135/179/78
o Cube_cell.005
v 1.000000 -1.000000 -1.000000
v -0.555473 0.377359 -0.551320
v -0.447573 0.408588 -0.513395
v -0.096521 0.380429 -0.616245
v -0.256301 -1.000000 0.025005
v -0.255165 -1.000000 -0.001790
v -0.477672 0.127171 -1.000000
v -0.458952 0.047491 -1.000000
v -0.211751 -1.000000 -1.000000
v 0.083269 -1.000000 0.176576
v 0.213651 0.189545 -1.000000
v 0.229903 0.190988 -1.000000
v 1.000000 -0.098564 -0.692359
v 1.000000 -1.000000 -0.132565
v 0.254067 0.193061 -1.000000
v 1.000000 -0.124903 -1.000000
v -0.256301 -1.000000 0.025005
v -0.255165 -1.000000 -0.001790
v -0.477672 0.127171 -1.000000
v -0.458952 0.047491 -1.000000
v -0.211751 -1.000000 -1.000000
v 1.000000 -0.098564 -0.692359
v 1.000000 -1.000000 -0.132565
v 1.000000 -0.124903 -1.000000
v 0.213651 0.189545 -1.000000
v 0.229903 0.190988 -1.000000
v 0.083269 -1.000000 0.176576
v 0.254067 0.193061 -1.000000
vn -0.9727 -0.2285 -0.0412
vn -0.9724 -0.2295 -0.0423
vn -0.3911 0.2817 0.8762
vn -0.3898 0.2824 0.8765
vn -0.0769 0.8659 -0.4943
vn -0.0780 0.8649 -0.4958
vn 0.3909 0.9171 -0.0785
vn 0.2793 0.5100 0.8136
vn -0.0744 0.8676 -0.4916
vn -0.0000 -1.0000 -0.0000
vn 1.0000 -0.0000 -0.0000
vn -0.0000 -0.0000 -1.0000
vn 0.2780 0.5050 0.8171
vn 0.3937 0.9151 -0.0871
vn -0.0000 0.0001 -1.0000
vn -0.0000 -0.0011 -1.0000
vn 0.2754 0.5072 0.8167
vt 0.000000 0.000000
vt 1.000000 0.045259
vt 1.000000 0.956396
vt 0.956396 0.956396
vt 0.045259 0.045259
vt 0.956452 0.045245
vt 1.000000 0.000000
vt 1.000000 0.964882
vt 0.034789 0.000000
vt 0.034044 0.000000
vt 1.000000 1.000000
vt 1.000000 0.101133
vt 1.000000 0.099514
vt 0.101133 0.101133
vt 0.883747 0.883747
vt 0.956132 0.000000
vt 0.858747 0.066523
vt 0.043868 0.000000
vt 1.000000 0.093991
vt 0.217962 0.628126
vt 0.223531 0.500000
vt 0.375000 0.608429
vt 0.487680 0.538455
vt 0.375000 0.500000
vt 0.484387 0.500000
vt 0.515896 0.315291
vt 0.523874 0.403738
vt 0.484387 0.500000
vt 0.965956 0.000000
vt 0.033587 0.000000
vt 0.964882 0.964882
vt 0.900486 0.000000
vt 0.906009 0.000000
vt 0.883747 0.000000
vt 0.260409 0.647072
vt 0.218104 0.624776
vt 0.375000 0.348531
vt 0.505936 0.317631
vt 0.523693 0.401706
vt 0.524133 0.406758
vt 0.999327 0.965753
s 0
usemtl Material
f 137/195/79 155/196/79 153/197/79
f 153/198/80 155/199/80 156/200/80
f 137/201/81 152/202/81 162/203/81
f 162/204/82 138/201/82 137/205/82
f 138/195/83 160/206/83 137/205/83
f 154/207/84 137/205/84 160/208/84
f 163/209/85 157/210/85 151/211/85
f 157/212/86 139/201/86 138/205/86
f 139/195/87 161/213/87 138/205/87
f 140/214/88 144/215/88 158/216/88
f 148/217/89 136/218/89 159/219/89
f 142/220/90 147/221/90 159/222/90
f 162/223/91 157/224/91 138/195/91
f 153/197/79 152/225/79 137/195/79
f 137/195/79 154/226/79 155/196/79
f 138/195/83 161/227/83 160/206/83
f 163/209/92 139/195/92 157/210/92
f 139/195/87 163/228/87 161/213/87
f 158/216/88 145/229/88 140/214/88
f 140/214/88 141/230/88 144/215/88
f 144/215/88 136/218/88 158/216/88
f 148/217/89 158/216/89 136/218/89
f 159/222/90 136/218/90 144/231/90
f 144/231/93 143/232/93 142/220/93
f 142/220/94 146/233/94 147/221/94
f 147/221/90 150/234/90 159/222/90
f 159/222/90 144/231/90 142/220/90
f 162/223/95 149/235/95 157/224/95
o Cube_cell.006
v -1.000000 1.000000 1.000000
v -0.462411 0.466756 -0.459690
v -0.467074 0.474998 -0.487175
v -0.343383 0.722324 -0.446889
v -1.000000 0.494807 -0.594891
v -1.000000 0.049999 1.000000
v -0.603498 0.057226 1.000000
v 0.035507 1.000000 0.920477
v 0.043123 1.000000 1.000000
v -0.440261 1.000000 -0.450348
v -1.000000 1.000000 -0.566997
v -1.000000 0.513162 -0.596093
v -0.044926 1.000000 0.093747
v -0.143132 1.000000 -0.213451
v -0.147521 1.000000 -0.226906
v -1.000000 0.513162 -0.596093
v -1.000000 0.494807 -0.594891
v -1.000000 0.049999 1.000000
v 0.035507 1.000000 0.920477
v 0.043123 1.000000 1.000000
v -1.000000 1.000000 -0.566997
v -0.044926 1.000000 0.093747
v -0.143132 1.000000 -0.213451
v -0.440261 1.000000 -0.450348
v -0.147521 1.000000 -0.226906
v -0.603498 0.057226 1.000000
vn 0.2037 0.0584 -0.9773
vn 0.8221 -0.5639 -0.0787
vn 0.8235 -0.5616 -0.0801
vn 0.1954 -0.0641 -0.9786
vn 0.0232 -0.9565 -0.2908
vn 0.8739 -0.4045 -0.2695
vn 0.8754 -0.3942 -0.2798
vn 0.5947 0.1978 -0.7792
vn 0.8750 -0.3911 -0.2854
vn -0.0000 1.0000 -0.0000
vn -0.0000 -0.0000 1.0000
vn -1.0000 -0.0000 -0.0000
vn 0.0173 -0.9631 -0.2686
vn 0.2034 0.0588 -0.9773
vn 0.2038 0.0573 -0.9773
vn 0.0176 -0.9631 -0.2685
vt 0.152641 0.000000
vt 0.929884 0.000000
vt 0.929713 0.880975
vt 0.914476 0.000000
vt 0.967162 0.967162
vt 0.000000 0.000000
vt 0.913988 0.000000
vt 0.914476 0.914476
vt 0.929884 0.929884
vt 1.000000 0.000000
vt 1.000000 0.914993
vt 0.914993 0.914993
vt 1.000000 1.000000
vt 1.000000 0.086012
vt 0.912755 0.912755
vt 0.913558 0.000000
vt 1.000000 0.847359
vt 0.151752 0.000000
vt 0.086442 0.000000
vt 0.875000 0.750000
vt 0.745562 0.740060
vt 0.767892 0.598319
vt 0.625000 1.000000
vt 0.507153 0.950437
vt 0.625000 0.869610
vt 0.506250 0.000000
vt 0.625000 0.195875
vt 0.564145 0.199512
vt 0.967082 0.898086
vt 0.084332 0.000000
vt 0.967166 0.030525
vt 0.151753 0.151753
vt 0.768440 0.596637
vt 0.805033 0.568707
vt 0.875000 0.554125
vt 0.744610 0.750000
vt 0.755616 0.636718
vt 0.506250 1.000000
vt 0.561851 0.199361
vt 0.625000 0.000000
vt 0.967162 0.000000
s 0
usemtl Material
f 187/236/96 179/237/96 184/238/96
f 182/239/97 189/240/97 165/241/97
f 165/241/98 185/242/98 182/243/98
f 179/244/99 166/245/99 180/246/99
f 166/241/100 165/245/100 180/247/100
f 165/248/101 166/241/101 185/249/101
f 185/250/102 166/241/102 186/251/102
f 167/245/103 187/252/103 188/253/103
f 167/248/104 186/254/104 166/245/104
f 164/255/105 171/256/105 177/257/105
f 164/258/106 170/259/106 172/260/106
f 181/261/107 174/262/107 175/263/107
f 165/241/108 169/264/108 180/265/108
f 187/236/109 167/241/109 179/237/109
f 182/239/97 183/266/97 189/240/97
f 179/244/110 167/241/110 166/245/110
f 167/248/104 188/267/104 186/254/104
f 177/257/105 178/268/105 173/269/105
f 173/269/105 174/270/105 164/255/105
f 164/255/105 172/271/105 171/256/105
f 171/256/105 176/272/105 177/257/105
f 177/257/105 173/269/105 164/255/105
f 164/258/106 181/273/106 170/259/106
f 175/263/107 168/274/107 181/261/107
f 181/261/107 164/275/107 174/262/107
f 165/241/111 189/276/111 169/264/111
o Cube_cell.007
v -1.000000 -1.000000 1.000000
v -0.462204 0.464709 -0.459321
v -0.468011 0.472954 -0.487743
v -0.449746 0.409675 -0.511803
v -0.557411 0.378106 -0.549736
v -1.000000 0.489075 -0.599549
v -1.000000 0.494282 -0.597234
v -1.000000 0.047478 1.000000
v -0.621376 0.054744 1.000000
v -1.000000 0.444809 -0.420108
v -0.603371 0.055057 1.000000
v -1.000000 0.374288 -0.650090
v 0.159892 -1.000000 0.868416
v 0.081958 -1.000000 0.177863
v -0.257013 -1.000000 0.027138
v -1.000000 -1.000000 -0.143021
v 0.121783 -1.000000 1.000000
v -0.603371 0.055057 1.000000
v 0.121783 -1.000000 1.000000
v -1.000000 0.047478 1.000000
v -0.621376 0.054744 1.000000
v -1.000000 0.489075 -0.599549
v -1.000000 0.374288 -0.650090
v 0.081958 -1.000000 0.177863
v 0.159892 -1.000000 0.868416
v -0.257013 -1.000000 0.027138
v -1.000000 -1.000000 -0.143021
v -1.000000 0.494282 -0.597234
v -1.000000 0.444809 -0.420108
vn 0.2002 0.3982 -0.8952
vn -0.0185 0.9629 0.2694
vn -0.0168 0.9630 0.2690
vn 0.9446 0.3117 -0.1026
vn 0.0299 0.9616 0.2728
vn 0.2101 -0.3382 -0.9173
vn 0.3912 -0.2812 -0.8763
vn 0.2000 0.3952 -0.8966
vn 0.9463 0.3051 -0.1068
vn 0.3898 -0.2820 -0.8767
vn -0.0000 -0.0000 1.0000
vn -1.0000 -0.0000 -0.0000
vn -0.0000 -1.0000 -0.0000
vn 0.8016 0.5509 0.2322
vn -0.0167 0.9630 0.2690
vn 0.2109 -0.3384 -0.9171
vn 0.1999 0.3948 -0.8967
vn 0.9461 0.3085 -0.0989
vt 0.000000 0.000000
vt 1.000000 0.916753
vt 0.914140 0.914140
vt 1.000000 0.030370
vt 1.000000 0.886957
vt 0.143841 0.030051
vt 1.000000 0.000000
vt 0.886957 0.886957
vt 0.030370 0.030370
vt 1.000000 1.000000
vt 0.033351 0.000000
vt 0.937550 0.035049
vt 0.964811 0.000000
vt 0.035088 0.000000
vt 0.916753 0.916753
vt 1.000000 0.034329
vt 0.966729 0.000000
vt 0.035088 0.035088
vt 1.000000 0.035189
vt 0.506843 0.952672
vt 0.375000 1.000000
vt 0.375000 0.859777
vt 0.561134 0.199944
vt 0.375000 0.142878
vt 0.505935 0.000000
vt 0.269986 0.733552
vt 0.125000 0.750000
vt 0.217873 0.628392
vt 1.000000 0.966649
vt 1.000000 0.033271
vt 0.032734 0.000000
vt 1.000000 0.914140
vt 0.898631 0.898631
vt 0.898631 0.000000
vt 0.506882 0.950421
vt 0.505935 1.000000
vt 0.555601 0.177513
vt 0.561785 0.199654
vt 0.546786 0.206261
vt 0.375000 0.000000
vt 0.260770 0.647467
vt 0.265223 0.750000
vt 0.125000 0.607122
vt 0.034337 0.033036
s 0
usemtl Material
f 192/277/112 211/278/112 217/279/112
f 210/280/113 218/281/113 197/282/113
f 192/283/114 218/284/114 210/285/114
f 191/277/115 193/283/115 192/286/115
f 200/287/116 191/283/116 192/286/116
f 216/288/117 194/277/117 215/289/117
f 193/286/118 213/290/118 194/283/118
f 194/277/119 211/291/119 193/286/119
f 213/292/120 191/277/120 214/293/120
f 194/286/121 213/294/121 215/295/121
f 198/296/122 190/297/122 208/298/122
f 195/299/123 205/300/123 209/301/123
f 202/302/124 190/303/124 204/304/124
f 200/305/125 214/306/125 191/283/125
f 192/277/112 193/283/112 211/278/112
f 210/285/126 200/307/126 192/283/126
f 192/283/114 217/308/114 218/284/114
f 216/288/127 212/309/127 194/277/127
f 194/277/128 212/310/128 211/291/128
f 213/292/129 193/286/129 191/277/129
f 208/298/122 207/311/122 198/296/122
f 198/296/122 209/312/122 190/297/122
f 199/313/123 196/314/123 195/299/123
f 195/299/123 201/315/123 205/300/123
f 205/300/123 190/316/123 209/301/123
f 209/301/123 199/313/123 195/299/123
f 204/304/124 203/317/124 202/302/124
f 202/302/124 208/318/124 190/303/124
f 190/303/124 205/319/124 204/304/124
f 200/305/125 206/320/125 214/306/125
